<svg width="478" height="478" viewBox="0 0 478 478" fill="none" xmlns="http://www.w3.org/2000/svg">
<path d="M338.215 19.2209C338.252 19.2209 338.282 19.1909 338.282 19.1539C338.282 19.1169 338.252 19.0869 338.215 19.0869C338.178 19.0869 338.148 19.1169 338.148 19.1539C338.148 19.1909 338.178 19.2209 338.215 19.2209Z" fill="#CDE9FC"/>
<path d="M359 31.2209C359.037 31.2209 359.067 31.1909 359.067 31.1539C359.067 31.1169 359.037 31.0869 359 31.0869C358.963 31.0869 358.933 31.1169 358.933 31.1539C358.933 31.1909 358.963 31.2209 359 31.2209Z" fill="#CDE9FC"/>
<path d="M379.785 43.2209C379.822 43.2209 379.852 43.1909 379.852 43.1539C379.852 43.1169 379.822 43.0869 379.785 43.0869C379.748 43.0869 379.718 43.1169 379.718 43.1539C379.718 43.1909 379.748 43.2209 379.785 43.2209Z" fill="#CDE9FC"/>
<path d="M263.862 4.07166C263.935 4.07166 263.995 4.01212 263.995 3.93866C263.995 3.86521 263.935 3.80566 263.862 3.80566C263.789 3.80566 263.729 3.86521 263.729 3.93866C263.729 4.01212 263.789 4.07166 263.862 4.07166Z" fill="#CDE9FC"/>
<path d="M284.646 16.3375C284.866 16.3375 285.045 16.1589 285.045 15.9385C285.045 15.7182 284.866 15.5396 284.646 15.5396C284.426 15.5396 284.247 15.7182 284.247 15.9385C284.247 16.1589 284.426 16.3375 284.646 16.3375Z" fill="#CDE9FC"/>
<path d="M305.431 28.4707C305.725 28.4707 305.963 28.2326 305.963 27.9387C305.963 27.6449 305.725 27.4067 305.431 27.4067C305.137 27.4067 304.899 27.6449 304.899 27.9387C304.899 28.2326 305.137 28.4707 305.431 28.4707Z" fill="#CDE9FC"/>
<path d="M326.215 40.6049C326.583 40.6049 326.881 40.3068 326.881 39.9389C326.881 39.5711 326.583 39.2729 326.215 39.2729C325.847 39.2729 325.549 39.5711 325.549 39.9389C325.549 40.3068 325.847 40.6049 326.215 40.6049Z" fill="#CDE9FC"/>
<path d="M347 52.6049C347.368 52.6049 347.666 52.3068 347.666 51.9389C347.666 51.5711 347.368 51.2729 347 51.2729C346.632 51.2729 346.334 51.5711 346.334 51.9389C346.334 52.3068 346.632 52.6049 347 52.6049Z" fill="#CDE9FC"/>
<path d="M367.785 64.6049C368.153 64.6049 368.451 64.3068 368.451 63.9389C368.451 63.5711 368.153 63.2729 367.785 63.2729C367.417 63.2729 367.119 63.5711 367.119 63.9389C367.119 64.3068 367.417 64.6049 367.785 64.6049Z" fill="#CDE9FC"/>
<path d="M388.569 76.5378C388.9 76.5378 389.168 76.2697 389.168 75.9389C389.168 75.608 388.9 75.3398 388.569 75.3398C388.238 75.3398 387.97 75.608 387.97 75.9389C387.97 76.2697 388.238 76.5378 388.569 76.5378Z" fill="#CDE9FC"/>
<path d="M409.354 88.3375C409.574 88.3375 409.753 88.1589 409.753 87.9386C409.753 87.7182 409.574 87.5396 409.354 87.5396C409.134 87.5396 408.955 87.7182 408.955 87.9386C408.955 88.1589 409.134 88.3375 409.354 88.3375Z" fill="#CDE9FC"/>
<path d="M430.138 100.072C430.211 100.072 430.271 100.012 430.271 99.9387C430.271 99.8652 430.211 99.8057 430.138 99.8057C430.065 99.8057 430.005 99.8652 430.005 99.9387C430.005 100.012 430.065 100.072 430.138 100.072Z" fill="#CDE9FC"/>
<path d="M210.292 0.789762C210.329 0.789762 210.359 0.759764 210.359 0.722761C210.359 0.685758 210.329 0.655762 210.292 0.655762C210.255 0.655762 210.225 0.685758 210.225 0.722761C210.225 0.759764 210.255 0.789762 210.292 0.789762Z" fill="#CDE9FC"/>
<path d="M231.077 13.1217C231.297 13.1217 231.476 12.9431 231.476 12.7227C231.476 12.5024 231.297 12.3237 231.077 12.3237C230.857 12.3237 230.678 12.5024 230.678 12.7227C230.678 12.9431 230.857 13.1217 231.077 13.1217Z" fill="#CDE9FC"/>
<path d="M251.862 25.3886C252.23 25.3886 252.528 25.0905 252.528 24.7226C252.528 24.3548 252.23 24.0566 251.862 24.0566C251.494 24.0566 251.196 24.3548 251.196 24.7226C251.196 25.0905 251.494 25.3886 251.862 25.3886Z" fill="#CDE9FC"/>
<path d="M272.646 37.5879C273.124 37.5879 273.511 37.2006 273.511 36.7229C273.511 36.2452 273.124 35.8579 272.646 35.8579C272.168 35.8579 271.781 36.2452 271.781 36.7229C271.781 37.2006 272.168 37.5879 272.646 37.5879Z" fill="#CDE9FC"/>
<path d="M293.431 49.7206C293.982 49.7206 294.429 49.2738 294.429 48.7226C294.429 48.1714 293.982 47.7246 293.431 47.7246C292.88 47.7246 292.433 48.1714 292.433 48.7226C292.433 49.2738 292.88 49.7206 293.431 49.7206Z" fill="#CDE9FC"/>
<path d="M314.215 61.8538C314.84 61.8538 315.346 61.3474 315.346 60.7228C315.346 60.0982 314.84 59.5918 314.215 59.5918C313.59 59.5918 313.084 60.0982 313.084 60.7228C313.084 61.3474 313.59 61.8538 314.215 61.8538Z" fill="#CDE9FC"/>
<path d="M335 73.8538C335.625 73.8538 336.131 73.3474 336.131 72.7228C336.131 72.0982 335.625 71.5918 335 71.5918C334.375 71.5918 333.869 72.0982 333.869 72.7228C333.869 73.3474 334.375 73.8538 335 73.8538Z" fill="#CDE9FC"/>
<path d="M355.785 85.8538C356.41 85.8538 356.916 85.3474 356.916 84.7228C356.916 84.0982 356.41 83.5918 355.785 83.5918C355.16 83.5918 354.654 84.0982 354.654 84.7228C354.654 85.3474 355.16 85.8538 355.785 85.8538Z" fill="#CDE9FC"/>
<path d="M376.569 97.7877C377.157 97.7877 377.634 97.3109 377.634 96.7227C377.634 96.1345 377.157 95.6577 376.569 95.6577C375.981 95.6577 375.504 96.1345 375.504 96.7227C375.504 97.3109 375.981 97.7877 376.569 97.7877Z" fill="#CDE9FC"/>
<path d="M397.354 109.588C397.832 109.588 398.219 109.201 398.219 108.723C398.219 108.245 397.832 107.858 397.354 107.858C396.876 107.858 396.489 108.245 396.489 108.723C396.489 109.201 396.876 109.588 397.354 109.588Z" fill="#CDE9FC"/>
<path d="M418.138 121.455C418.542 121.455 418.87 121.127 418.87 120.723C418.87 120.318 418.542 119.991 418.138 119.991C417.734 119.991 417.406 120.318 417.406 120.723C417.406 121.127 417.734 121.455 418.138 121.455Z" fill="#CDE9FC"/>
<path d="M438.923 133.189C439.18 133.189 439.389 132.98 439.389 132.723C439.389 132.465 439.18 132.257 438.923 132.257C438.666 132.257 438.457 132.465 438.457 132.723C438.457 132.98 438.666 133.189 438.923 133.189Z" fill="#CDE9FC"/>
<path d="M459.708 144.79C459.745 144.79 459.775 144.76 459.775 144.723C459.775 144.686 459.745 144.656 459.708 144.656C459.671 144.656 459.641 144.686 459.641 144.723C459.641 144.76 459.671 144.79 459.708 144.79Z" fill="#CDE9FC"/>
<path d="M177.508 9.641C177.581 9.641 177.641 9.58145 177.641 9.508C177.641 9.43455 177.581 9.375 177.508 9.375C177.435 9.375 177.375 9.43455 177.375 9.508C177.375 9.58145 177.435 9.641 177.508 9.641Z" fill="#CDE9FC"/>
<path d="M198.292 22.0396C198.586 22.0396 198.824 21.8014 198.824 21.5076C198.824 21.2138 198.586 20.9756 198.292 20.9756C197.998 20.9756 197.76 21.2138 197.76 21.5076C197.76 21.8014 197.998 22.0396 198.292 22.0396Z" fill="#CDE9FC"/>
<path d="M219.077 34.3726C219.555 34.3726 219.942 33.9853 219.942 33.5076C219.942 33.0298 219.555 32.6426 219.077 32.6426C218.599 32.6426 218.212 33.0298 218.212 33.5076C218.212 33.9853 218.599 34.3726 219.077 34.3726Z" fill="#CDE9FC"/>
<path d="M239.862 46.639C240.487 46.639 240.993 46.1326 240.993 45.508C240.993 44.8833 240.487 44.377 239.862 44.377C239.237 44.377 238.731 44.8833 238.731 45.508C238.731 46.1326 239.237 46.639 239.862 46.639Z" fill="#CDE9FC"/>
<path d="M260.646 58.8388C261.381 58.8388 261.977 58.2429 261.977 57.5078C261.977 56.7727 261.381 56.1768 260.646 56.1768C259.911 56.1768 259.315 56.7727 259.315 57.5078C259.315 58.2429 259.911 58.8388 260.646 58.8388Z" fill="#CDE9FC"/>
<path d="M281.431 71.0386C282.277 71.0386 282.962 70.3531 282.962 69.5076C282.962 68.662 282.277 67.9766 281.431 67.9766C280.585 67.9766 279.9 68.662 279.9 69.5076C279.9 70.3531 280.585 71.0386 281.431 71.0386Z" fill="#CDE9FC"/>
<path d="M302.215 83.1717C303.134 83.1717 303.879 82.4268 303.879 81.5078C303.879 80.5887 303.134 79.8438 302.215 79.8438C301.296 79.8438 300.551 80.5887 300.551 81.5078C300.551 82.4268 301.296 83.1717 302.215 83.1717Z" fill="#CDE9FC"/>
<path d="M323 95.2378C323.955 95.2378 324.73 94.4633 324.73 93.5078C324.73 92.5524 323.955 91.7778 323 91.7778C322.045 91.7778 321.27 92.5524 321.27 93.5078C321.27 94.4633 322.045 95.2378 323 95.2378Z" fill="#CDE9FC"/>
<path d="M343.785 107.172C344.704 107.172 345.449 106.427 345.449 105.508C345.449 104.589 344.704 103.844 343.785 103.844C342.866 103.844 342.121 104.589 342.121 105.508C342.121 106.427 342.866 107.172 343.785 107.172Z" fill="#CDE9FC"/>
<path d="M364.569 119.039C365.415 119.039 366.1 118.353 366.1 117.508C366.1 116.662 365.415 115.977 364.569 115.977C363.723 115.977 363.038 116.662 363.038 117.508C363.038 118.353 363.723 119.039 364.569 119.039Z" fill="#CDE9FC"/>
<path d="M385.354 130.906C386.126 130.906 386.752 130.28 386.752 129.508C386.752 128.736 386.126 128.11 385.354 128.11C384.582 128.11 383.956 128.736 383.956 129.508C383.956 130.28 384.582 130.906 385.354 130.906Z" fill="#CDE9FC"/>
<path d="M406.138 142.639C406.763 142.639 407.269 142.133 407.269 141.508C407.269 140.883 406.763 140.377 406.138 140.377C405.513 140.377 405.007 140.883 405.007 141.508C405.007 142.133 405.513 142.639 406.138 142.639Z" fill="#CDE9FC"/>
<path d="M426.923 154.373C427.401 154.373 427.788 153.985 427.788 153.508C427.788 153.03 427.401 152.643 426.923 152.643C426.445 152.643 426.058 153.03 426.058 153.508C426.058 153.985 426.445 154.373 426.923 154.373Z" fill="#CDE9FC"/>
<path d="M447.708 166.107C448.039 166.107 448.307 165.839 448.307 165.508C448.307 165.177 448.039 164.909 447.708 164.909C447.377 164.909 447.109 165.177 447.109 165.508C447.109 165.839 447.377 166.107 447.708 166.107Z" fill="#CDE9FC"/>
<path d="M468.492 177.641C468.565 177.641 468.625 177.581 468.625 177.508C468.625 177.435 468.565 177.375 468.492 177.375C468.419 177.375 468.359 177.435 468.359 177.508C468.359 177.581 468.419 177.641 468.492 177.641Z" fill="#CDE9FC"/>
<path d="M144.723 18.3586C144.76 18.3586 144.79 18.3286 144.79 18.2916C144.79 18.2546 144.76 18.2246 144.723 18.2246C144.686 18.2246 144.656 18.2546 144.656 18.2916C144.656 18.3286 144.686 18.3586 144.723 18.3586Z" fill="#CDE9FC"/>
<path d="M165.508 30.8238C165.802 30.8238 166.04 30.5856 166.04 30.2918C166.04 29.998 165.802 29.7598 165.508 29.7598C165.214 29.7598 164.976 29.998 164.976 30.2918C164.976 30.5856 165.214 30.8238 165.508 30.8238Z" fill="#CDE9FC"/>
<path d="M186.292 43.1568C186.77 43.1568 187.157 42.7695 187.157 42.2918C187.157 41.814 186.77 41.4268 186.292 41.4268C185.814 41.4268 185.427 41.814 185.427 42.2918C185.427 42.7695 185.814 43.1568 186.292 43.1568Z" fill="#CDE9FC"/>
<path d="M207.077 55.4897C207.739 55.4897 208.275 54.9534 208.275 54.2917C208.275 53.6301 207.739 53.0938 207.077 53.0938C206.415 53.0938 205.879 53.6301 205.879 54.2917C205.879 54.9534 206.415 55.4897 207.077 55.4897Z" fill="#CDE9FC"/>
<path d="M227.862 67.8888C228.744 67.8888 229.459 67.1738 229.459 66.2918C229.459 65.4098 228.744 64.6948 227.862 64.6948C226.98 64.6948 226.265 65.4098 226.265 66.2918C226.265 67.1738 226.98 67.8888 227.862 67.8888Z" fill="#CDE9FC"/>
<path d="M248.646 80.1547C249.675 80.1547 250.509 79.3206 250.509 78.2917C250.509 77.2628 249.675 76.4287 248.646 76.4287C247.617 76.4287 246.783 77.2628 246.783 78.2917C246.783 79.3206 247.617 80.1547 248.646 80.1547Z" fill="#CDE9FC"/>
<path d="M269.431 92.4216C270.607 92.4216 271.561 91.468 271.561 90.2916C271.561 89.1153 270.607 88.1616 269.431 88.1616C268.255 88.1616 267.301 89.1153 267.301 90.2916C267.301 91.468 268.255 92.4216 269.431 92.4216Z" fill="#CDE9FC"/>
<path d="M290.215 104.555C291.465 104.555 292.478 103.542 292.478 102.292C292.478 101.042 291.465 100.029 290.215 100.029C288.965 100.029 287.952 101.042 287.952 102.292C287.952 103.542 288.965 104.555 290.215 104.555Z" fill="#CDE9FC"/>
<path d="M311 116.621C312.286 116.621 313.329 115.578 313.329 114.292C313.329 113.006 312.286 111.963 311 111.963C309.714 111.963 308.671 113.006 308.671 114.292C308.671 115.578 309.714 116.621 311 116.621Z" fill="#CDE9FC"/>
<path d="M331.785 128.621C333.071 128.621 334.114 127.578 334.114 126.292C334.114 125.006 333.071 123.963 331.785 123.963C330.499 123.963 329.456 125.006 329.456 126.292C329.456 127.578 330.499 128.621 331.785 128.621Z" fill="#CDE9FC"/>
<path d="M352.569 140.422C353.745 140.422 354.699 139.468 354.699 138.292C354.699 137.115 353.745 136.162 352.569 136.162C351.393 136.162 350.439 137.115 350.439 138.292C350.439 139.468 351.393 140.422 352.569 140.422Z" fill="#CDE9FC"/>
<path d="M373.354 152.222C374.42 152.222 375.284 151.358 375.284 150.292C375.284 149.226 374.42 148.362 373.354 148.362C372.288 148.362 371.424 149.226 371.424 150.292C371.424 151.358 372.288 152.222 373.354 152.222Z" fill="#CDE9FC"/>
<path d="M394.138 163.889C395.02 163.889 395.735 163.174 395.735 162.292C395.735 161.41 395.02 160.695 394.138 160.695C393.256 160.695 392.541 161.41 392.541 162.292C392.541 163.174 393.256 163.889 394.138 163.889Z" fill="#CDE9FC"/>
<path d="M414.923 175.556C415.621 175.556 416.187 174.99 416.187 174.292C416.187 173.594 415.621 173.028 414.923 173.028C414.225 173.028 413.659 173.594 413.659 174.292C413.659 174.99 414.225 175.556 414.923 175.556Z" fill="#CDE9FC"/>
<path d="M435.708 187.224C436.223 187.224 436.64 186.807 436.64 186.292C436.64 185.777 436.223 185.36 435.708 185.36C435.193 185.36 434.776 185.777 434.776 186.292C434.776 186.807 435.193 187.224 435.708 187.224Z" fill="#CDE9FC"/>
<path d="M456.492 198.891C456.823 198.891 457.091 198.623 457.091 198.292C457.091 197.961 456.823 197.693 456.492 197.693C456.161 197.693 455.893 197.961 455.893 198.292C455.893 198.623 456.161 198.891 456.492 198.891Z" fill="#CDE9FC"/>
<path d="M477.277 210.359C477.314 210.359 477.344 210.329 477.344 210.292C477.344 210.255 477.314 210.225 477.277 210.225C477.24 210.225 477.21 210.255 477.21 210.292C477.21 210.329 477.24 210.359 477.277 210.359Z" fill="#CDE9FC"/>
<path d="M132.723 39.4757C132.943 39.4757 133.122 39.2971 133.122 39.0767C133.122 38.8564 132.943 38.6777 132.723 38.6777C132.503 38.6777 132.324 38.8564 132.324 39.0767C132.324 39.2971 132.503 39.4757 132.723 39.4757Z" fill="#CDE9FC"/>
<path d="M153.508 51.9419C153.986 51.9419 154.373 51.5546 154.373 51.0769C154.373 50.5992 153.986 50.2119 153.508 50.2119C153.03 50.2119 152.643 50.5992 152.643 51.0769C152.643 51.5546 153.03 51.9419 153.508 51.9419Z" fill="#CDE9FC"/>
<path d="M174.292 64.341C174.99 64.341 175.556 63.7751 175.556 63.077C175.556 62.3789 174.99 61.813 174.292 61.813C173.594 61.813 173.028 62.3789 173.028 63.077C173.028 63.7751 173.594 64.341 174.292 64.341Z" fill="#CDE9FC"/>
<path d="M195.077 76.7406C195.996 76.7406 196.741 75.9956 196.741 75.0766C196.741 74.1576 195.996 73.4126 195.077 73.4126C194.158 73.4126 193.413 74.1576 193.413 75.0766C193.413 75.9956 194.158 76.7406 195.077 76.7406Z" fill="#CDE9FC"/>
<path d="M215.862 89.1397C217.001 89.1397 217.925 88.216 217.925 87.0767C217.925 85.9373 217.001 85.0137 215.862 85.0137C214.723 85.0137 213.799 85.9373 213.799 87.0767C213.799 88.216 214.723 89.1397 215.862 89.1397Z" fill="#CDE9FC"/>
<path d="M236.646 101.539C238.006 101.539 239.108 100.436 239.108 99.0768C239.108 97.717 238.006 96.6147 236.646 96.6147C235.286 96.6147 234.184 97.717 234.184 99.0768C234.184 100.436 235.286 101.539 236.646 101.539Z" fill="#CDE9FC"/>
<path d="M257.431 113.872C258.975 113.872 260.226 112.62 260.226 111.077C260.226 109.533 258.975 108.282 257.431 108.282C255.887 108.282 254.636 109.533 254.636 111.077C254.636 112.62 255.887 113.872 257.431 113.872Z" fill="#CDE9FC"/>
<path d="M278.215 126.138C279.906 126.138 281.276 124.767 281.276 123.077C281.276 121.386 279.906 120.016 278.215 120.016C276.524 120.016 275.154 121.386 275.154 123.077C275.154 124.767 276.524 126.138 278.215 126.138Z" fill="#CDE9FC"/>
<path d="M299 138.205C300.728 138.205 302.128 136.804 302.128 135.077C302.128 133.349 300.728 131.949 299 131.949C297.272 131.949 295.872 133.349 295.872 135.077C295.872 136.804 297.272 138.205 299 138.205Z" fill="#CDE9FC"/>
<path d="M319.785 150.138C321.476 150.138 322.846 148.767 322.846 147.077C322.846 145.386 321.476 144.016 319.785 144.016C318.094 144.016 316.724 145.386 316.724 147.077C316.724 148.767 318.094 150.138 319.785 150.138Z" fill="#CDE9FC"/>
<path d="M340.569 161.939C342.15 161.939 343.431 160.657 343.431 159.077C343.431 157.496 342.15 156.215 340.569 156.215C338.988 156.215 337.707 157.496 337.707 159.077C337.707 160.657 338.988 161.939 340.569 161.939Z" fill="#CDE9FC"/>
<path d="M361.354 173.606C362.751 173.606 363.883 172.474 363.883 171.077C363.883 169.68 362.751 168.548 361.354 168.548C359.957 168.548 358.825 169.68 358.825 171.077C358.825 172.474 359.957 173.606 361.354 173.606Z" fill="#CDE9FC"/>
<path d="M382.138 185.207C383.314 185.207 384.268 184.253 384.268 183.077C384.268 181.9 383.314 180.947 382.138 180.947C380.962 180.947 380.008 181.9 380.008 183.077C380.008 184.253 380.962 185.207 382.138 185.207Z" fill="#CDE9FC"/>
<path d="M402.923 196.741C403.842 196.741 404.587 195.996 404.587 195.077C404.587 194.158 403.842 193.413 402.923 193.413C402.004 193.413 401.259 194.158 401.259 195.077C401.259 195.996 402.004 196.741 402.923 196.741Z" fill="#CDE9FC"/>
<path d="M423.708 208.341C424.406 208.341 424.972 207.775 424.972 207.077C424.972 206.379 424.406 205.813 423.708 205.813C423.01 205.813 422.444 206.379 422.444 207.077C422.444 207.775 423.01 208.341 423.708 208.341Z" fill="#CDE9FC"/>
<path d="M444.492 219.942C444.97 219.942 445.357 219.555 445.357 219.077C445.357 218.599 444.97 218.212 444.492 218.212C444.014 218.212 443.627 218.599 443.627 219.077C443.627 219.555 444.014 219.942 444.492 219.942Z" fill="#CDE9FC"/>
<path d="M465.277 231.476C465.497 231.476 465.676 231.297 465.676 231.077C465.676 230.856 465.497 230.678 465.277 230.678C465.057 230.678 464.878 230.856 464.878 231.077C464.878 231.297 465.057 231.476 465.277 231.476Z" fill="#CDE9FC"/>
<path d="M99.939 47.9945C100.012 47.9945 100.072 47.935 100.072 47.8615C100.072 47.7881 100.012 47.7285 99.939 47.7285C99.8656 47.7285 99.806 47.7881 99.806 47.8615C99.806 47.935 99.8656 47.9945 99.939 47.9945Z" fill="#CDE9FC"/>
<path d="M120.723 60.5278C121.091 60.5278 121.389 60.2296 121.389 59.8618C121.389 59.494 121.091 59.1958 120.723 59.1958C120.355 59.1958 120.057 59.494 120.057 59.8618C120.057 60.2296 120.355 60.5278 120.723 60.5278Z" fill="#CDE9FC"/>
<path d="M141.508 72.993C142.133 72.993 142.639 72.4866 142.639 71.862C142.639 71.2373 142.133 70.731 141.508 70.731C140.883 70.731 140.377 71.2373 140.377 71.862C140.377 72.4866 140.883 72.993 141.508 72.993Z" fill="#CDE9FC"/>
<path d="M162.292 85.3926C163.138 85.3926 163.823 84.7071 163.823 83.8616C163.823 83.016 163.138 82.3306 162.292 82.3306C161.446 82.3306 160.761 83.016 160.761 83.8616C160.761 84.7071 161.446 85.3926 162.292 85.3926Z" fill="#CDE9FC"/>
<path d="M183.077 97.9248C184.216 97.9248 185.14 97.0012 185.14 95.8618C185.14 94.7225 184.216 93.7988 183.077 93.7988C181.938 93.7988 181.014 94.7225 181.014 95.8618C181.014 97.0012 181.938 97.9248 183.077 97.9248Z" fill="#CDE9FC"/>
<path d="M203.862 110.457C205.295 110.457 206.457 109.295 206.457 107.862C206.457 106.428 205.295 105.267 203.862 105.267C202.429 105.267 201.267 106.428 201.267 107.862C201.267 109.295 202.429 110.457 203.862 110.457Z" fill="#CDE9FC"/>
<path d="M224.646 122.99C226.374 122.99 227.774 121.589 227.774 119.862C227.774 118.134 226.374 116.734 224.646 116.734C222.918 116.734 221.518 118.134 221.518 119.862C221.518 121.589 222.918 122.99 224.646 122.99Z" fill="#CDE9FC"/>
<path d="M245.431 135.456C247.416 135.456 249.025 133.846 249.025 131.862C249.025 129.877 247.416 128.268 245.431 128.268C243.446 128.268 241.837 129.877 241.837 131.862C241.837 133.846 243.446 135.456 245.431 135.456Z" fill="#CDE9FC"/>
<path d="M266.215 147.855C268.42 147.855 270.208 146.067 270.208 143.862C270.208 141.656 268.42 139.869 266.215 139.869C264.01 139.869 262.222 141.656 262.222 143.862C262.222 146.067 264.01 147.855 266.215 147.855Z" fill="#CDE9FC"/>
<path d="M287 159.988C289.279 159.988 291.126 158.141 291.126 155.862C291.126 153.583 289.279 151.736 287 151.736C284.721 151.736 282.874 153.583 282.874 155.862C282.874 158.141 284.721 159.988 287 159.988Z" fill="#CDE9FC"/>
<path d="M307.785 171.855C309.99 171.855 311.778 170.067 311.778 167.862C311.778 165.656 309.99 163.869 307.785 163.869C305.58 163.869 303.792 165.656 303.792 167.862C303.792 170.067 305.58 171.855 307.785 171.855Z" fill="#CDE9FC"/>
<path d="M328.569 183.522C330.59 183.522 332.229 181.883 332.229 179.862C332.229 177.84 330.59 176.202 328.569 176.202C326.548 176.202 324.909 177.84 324.909 179.862C324.909 181.883 326.548 183.522 328.569 183.522Z" fill="#CDE9FC"/>
<path d="M349.354 195.056C351.118 195.056 352.548 193.626 352.548 191.862C352.548 190.098 351.118 188.668 349.354 188.668C347.59 188.668 346.16 190.098 346.16 191.862C346.16 193.626 347.59 195.056 349.354 195.056Z" fill="#CDE9FC"/>
<path d="M370.138 206.524C371.608 206.524 372.8 205.332 372.8 203.862C372.8 202.392 371.608 201.2 370.138 201.2C368.668 201.2 367.476 202.392 367.476 203.862C367.476 205.332 368.668 206.524 370.138 206.524Z" fill="#CDE9FC"/>
<path d="M390.923 217.992C392.099 217.992 393.053 217.038 393.053 215.862C393.053 214.686 392.099 213.732 390.923 213.732C389.747 213.732 388.793 214.686 388.793 215.862C388.793 217.038 389.747 217.992 390.923 217.992Z" fill="#CDE9FC"/>
<path d="M411.708 229.459C412.59 229.459 413.305 228.744 413.305 227.862C413.305 226.98 412.59 226.265 411.708 226.265C410.826 226.265 410.111 226.98 410.111 227.862C410.111 228.744 410.826 229.459 411.708 229.459Z" fill="#CDE9FC"/>
<path d="M432.492 240.993C433.117 240.993 433.623 240.487 433.623 239.862C433.623 239.237 433.117 238.731 432.492 238.731C431.867 238.731 431.361 239.237 431.361 239.862C431.361 240.487 431.867 240.993 432.492 240.993Z" fill="#CDE9FC"/>
<path d="M453.277 252.594C453.681 252.594 454.009 252.266 454.009 251.862C454.009 251.458 453.681 251.13 453.277 251.13C452.873 251.13 452.545 251.458 452.545 251.862C452.545 252.266 452.873 252.594 453.277 252.594Z" fill="#CDE9FC"/>
<path d="M474.061 263.995C474.134 263.995 474.194 263.935 474.194 263.862C474.194 263.788 474.134 263.729 474.061 263.729C473.988 263.729 473.928 263.788 473.928 263.862C473.928 263.935 473.988 263.995 474.061 263.995Z" fill="#CDE9FC"/>
<path d="M87.939 69.0446C88.1593 69.0446 88.338 68.8659 88.338 68.6456C88.338 68.4252 88.1593 68.2466 87.939 68.2466C87.7186 68.2466 87.54 68.4252 87.54 68.6456C87.54 68.8659 87.7186 69.0446 87.939 69.0446Z" fill="#CDE9FC"/>
<path d="M108.723 81.5108C109.201 81.5108 109.588 81.1235 109.588 80.6458C109.588 80.168 109.201 79.7808 108.723 79.7808C108.245 79.7808 107.858 80.168 107.858 80.6458C107.858 81.1235 108.245 81.5108 108.723 81.5108Z" fill="#CDE9FC"/>
<path d="M129.508 93.9769C130.243 93.9769 130.839 93.381 130.839 92.6459C130.839 91.9109 130.243 91.3149 129.508 91.3149C128.773 91.3149 128.177 91.9109 128.177 92.6459C128.177 93.381 128.773 93.9769 129.508 93.9769Z" fill="#CDE9FC"/>
<path d="M150.292 106.509C151.321 106.509 152.155 105.675 152.155 104.646C152.155 103.617 151.321 102.783 150.292 102.783C149.263 102.783 148.429 103.617 148.429 104.646C148.429 105.675 149.263 106.509 150.292 106.509Z" fill="#CDE9FC"/>
<path d="M171.077 119.108C172.437 119.108 173.539 118.005 173.539 116.646C173.539 115.286 172.437 114.184 171.077 114.184C169.717 114.184 168.615 115.286 168.615 116.646C168.615 118.005 169.717 119.108 171.077 119.108Z" fill="#CDE9FC"/>
<path d="M191.862 131.774C193.59 131.774 194.99 130.373 194.99 128.646C194.99 126.918 193.59 125.518 191.862 125.518C190.134 125.518 188.734 126.918 188.734 128.646C188.734 130.373 190.134 131.774 191.862 131.774Z" fill="#CDE9FC"/>
<path d="M212.646 144.439C214.741 144.439 216.439 142.74 216.439 140.646C216.439 138.551 214.741 136.853 212.646 136.853C210.551 136.853 208.853 138.551 208.853 140.646C208.853 142.74 210.551 144.439 212.646 144.439Z" fill="#CDE9FC"/>
<path d="M233.431 157.105C235.894 157.105 237.89 155.108 237.89 152.646C237.89 150.183 235.894 148.187 233.431 148.187C230.968 148.187 228.972 150.183 228.972 152.646C228.972 155.108 230.968 157.105 233.431 157.105Z" fill="#CDE9FC"/>
<path d="M254.215 169.637C256.971 169.637 259.206 167.402 259.206 164.646C259.206 161.889 256.971 159.655 254.215 159.655C251.459 159.655 249.224 161.889 249.224 164.646C249.224 167.402 251.459 169.637 254.215 169.637Z" fill="#CDE9FC"/>
<path d="M275 181.904C277.904 181.904 280.258 179.55 280.258 176.646C280.258 173.742 277.904 171.388 275 171.388C272.096 171.388 269.742 173.742 269.742 176.646C269.742 179.55 272.096 181.904 275 181.904Z" fill="#CDE9FC"/>
<path d="M295.785 193.704C298.578 193.704 300.843 191.439 300.843 188.646C300.843 185.852 298.578 183.588 295.785 183.588C292.992 183.588 290.727 185.852 290.727 188.646C290.727 191.439 292.992 193.704 295.785 193.704Z" fill="#CDE9FC"/>
<path d="M316.569 205.238C319.105 205.238 321.161 203.182 321.161 200.646C321.161 198.11 319.105 196.054 316.569 196.054C314.033 196.054 311.977 198.11 311.977 200.646C311.977 203.182 314.033 205.238 316.569 205.238Z" fill="#CDE9FC"/>
<path d="M337.354 216.573C339.523 216.573 341.281 214.815 341.281 212.646C341.281 210.477 339.523 208.719 337.354 208.719C335.185 208.719 333.427 210.477 333.427 212.646C333.427 214.815 335.185 216.573 337.354 216.573Z" fill="#CDE9FC"/>
<path d="M358.138 227.84C359.902 227.84 361.332 226.41 361.332 224.646C361.332 222.882 359.902 221.452 358.138 221.452C356.374 221.452 354.944 222.882 354.944 224.646C354.944 226.41 356.374 227.84 358.138 227.84Z" fill="#CDE9FC"/>
<path d="M378.923 239.175C380.32 239.175 381.452 238.042 381.452 236.646C381.452 235.249 380.32 234.117 378.923 234.117C377.526 234.117 376.394 235.249 376.394 236.646C376.394 238.042 377.526 239.175 378.923 239.175Z" fill="#CDE9FC"/>
<path d="M399.708 250.576C400.774 250.576 401.638 249.712 401.638 248.646C401.638 247.58 400.774 246.716 399.708 246.716C398.642 246.716 397.778 247.58 397.778 248.646C397.778 249.712 398.642 250.576 399.708 250.576Z" fill="#CDE9FC"/>
<path d="M420.492 262.044C421.264 262.044 421.89 261.418 421.89 260.646C421.89 259.873 421.264 259.248 420.492 259.248C419.72 259.248 419.094 259.873 419.094 260.646C419.094 261.418 419.72 262.044 420.492 262.044Z" fill="#CDE9FC"/>
<path d="M441.277 273.578C441.792 273.578 442.209 273.161 442.209 272.646C442.209 272.131 441.792 271.714 441.277 271.714C440.762 271.714 440.345 272.131 440.345 272.646C440.345 273.161 440.762 273.578 441.277 273.578Z" fill="#CDE9FC"/>
<path d="M462.061 285.045C462.281 285.045 462.46 284.866 462.46 284.646C462.46 284.425 462.281 284.247 462.061 284.247C461.841 284.247 461.662 284.425 461.662 284.646C461.662 284.866 461.841 285.045 462.061 285.045Z" fill="#CDE9FC"/>
<path d="M75.939 89.9629C76.2328 89.9629 76.471 89.7247 76.471 89.4309C76.471 89.1371 76.2328 88.8989 75.939 88.8989C75.6452 88.8989 75.407 89.1371 75.407 89.4309C75.407 89.7247 75.6452 89.9629 75.939 89.9629Z" fill="#CDE9FC"/>
<path d="M96.723 102.429C97.2742 102.429 97.721 101.982 97.721 101.431C97.721 100.879 97.2742 100.433 96.723 100.433C96.1718 100.433 95.725 100.879 95.725 101.431C95.725 101.982 96.1718 102.429 96.723 102.429Z" fill="#CDE9FC"/>
<path d="M117.508 114.962C118.354 114.962 119.039 114.276 119.039 113.431C119.039 112.585 118.354 111.9 117.508 111.9C116.662 111.9 115.977 112.585 115.977 113.431C115.977 114.276 116.662 114.962 117.508 114.962Z" fill="#CDE9FC"/>
<path d="M138.292 127.561C139.468 127.561 140.422 126.607 140.422 125.431C140.422 124.254 139.468 123.301 138.292 123.301C137.116 123.301 136.162 124.254 136.162 125.431C136.162 126.607 137.116 127.561 138.292 127.561Z" fill="#CDE9FC"/>
<path d="M159.077 140.226C160.621 140.226 161.872 138.974 161.872 137.431C161.872 135.887 160.621 134.636 159.077 134.636C157.533 134.636 156.282 135.887 156.282 137.431C156.282 138.974 157.533 140.226 159.077 140.226Z" fill="#CDE9FC"/>
<path d="M179.862 153.025C181.847 153.025 183.456 151.416 183.456 149.431C183.456 147.446 181.847 145.837 179.862 145.837C177.877 145.837 176.268 147.446 176.268 149.431C176.268 151.416 177.877 153.025 179.862 153.025Z" fill="#CDE9FC"/>
<path d="M200.646 165.956C203.145 165.956 205.171 163.93 205.171 161.431C205.171 158.932 203.145 156.906 200.646 156.906C198.147 156.906 196.121 158.932 196.121 161.431C196.121 163.93 198.147 165.956 200.646 165.956Z" fill="#CDE9FC"/>
<path d="M221.431 178.822C224.408 178.822 226.822 176.408 226.822 173.431C226.822 170.453 224.408 168.04 221.431 168.04C218.454 168.04 216.04 170.453 216.04 173.431C216.04 176.408 218.454 178.822 221.431 178.822Z" fill="#CDE9FC"/>
<path d="M242.215 191.687C245.67 191.687 248.471 188.886 248.471 185.431C248.471 181.976 245.67 179.175 242.215 179.175C238.76 179.175 235.959 181.976 235.959 185.431C235.959 188.886 238.76 191.687 242.215 191.687Z" fill="#CDE9FC"/>
<path d="M263 204.02C266.639 204.02 269.589 201.07 269.589 197.431C269.589 193.792 266.639 190.842 263 190.842C259.361 190.842 256.411 193.792 256.411 197.431C256.411 201.07 259.361 204.02 263 204.02Z" fill="#CDE9FC"/>
<path d="M283.785 215.753C287.277 215.753 290.107 212.922 290.107 209.431C290.107 205.939 287.277 203.109 283.785 203.109C280.293 203.109 277.463 205.939 277.463 209.431C277.463 212.922 280.293 215.753 283.785 215.753Z" fill="#CDE9FC"/>
<path d="M304.569 226.955C307.62 226.955 310.093 224.482 310.093 221.431C310.093 218.38 307.62 215.907 304.569 215.907C301.518 215.907 299.045 218.38 299.045 221.431C299.045 224.482 301.518 226.955 304.569 226.955Z" fill="#CDE9FC"/>
<path d="M325.354 238.023C327.89 238.023 329.946 235.967 329.946 233.431C329.946 230.895 327.89 228.839 325.354 228.839C322.818 228.839 320.762 230.895 320.762 233.431C320.762 235.967 322.818 238.023 325.354 238.023Z" fill="#CDE9FC"/>
<path d="M346.138 249.158C348.196 249.158 349.865 247.489 349.865 245.431C349.865 243.372 348.196 241.704 346.138 241.704C344.08 241.704 342.411 243.372 342.411 245.431C342.411 247.489 344.08 249.158 346.138 249.158Z" fill="#CDE9FC"/>
<path d="M366.923 260.293C368.504 260.293 369.785 259.011 369.785 257.431C369.785 255.85 368.504 254.569 366.923 254.569C365.342 254.569 364.061 255.85 364.061 257.431C364.061 259.011 365.342 260.293 366.923 260.293Z" fill="#CDE9FC"/>
<path d="M387.708 271.627C388.921 271.627 389.904 270.644 389.904 269.431C389.904 268.218 388.921 267.235 387.708 267.235C386.495 267.235 385.512 268.218 385.512 269.431C385.512 270.644 386.495 271.627 387.708 271.627Z" fill="#CDE9FC"/>
<path d="M408.492 283.028C409.374 283.028 410.089 282.313 410.089 281.431C410.089 280.549 409.374 279.834 408.492 279.834C407.61 279.834 406.895 280.549 406.895 281.431C406.895 282.313 407.61 283.028 408.492 283.028Z" fill="#CDE9FC"/>
<path d="M429.277 294.496C429.865 294.496 430.342 294.019 430.342 293.431C430.342 292.843 429.865 292.366 429.277 292.366C428.689 292.366 428.212 292.843 428.212 293.431C428.212 294.019 428.689 294.496 429.277 294.496Z" fill="#CDE9FC"/>
<path d="M450.061 306.03C450.392 306.03 450.66 305.761 450.66 305.431C450.66 305.1 450.392 304.832 450.061 304.832C449.73 304.832 449.462 305.1 449.462 305.431C449.462 305.761 449.73 306.03 450.061 306.03Z" fill="#CDE9FC"/>
<path d="M43.154 98.2819C43.191 98.2819 43.221 98.2519 43.221 98.2149C43.221 98.1779 43.191 98.1479 43.154 98.1479C43.117 98.1479 43.087 98.1779 43.087 98.2149C43.087 98.2519 43.117 98.2819 43.154 98.2819Z" fill="#CDE9FC"/>
<path d="M63.939 110.814C64.2698 110.814 64.538 110.546 64.538 110.215C64.538 109.884 64.2698 109.616 63.939 109.616C63.6081 109.616 63.34 109.884 63.34 110.215C63.34 110.546 63.6081 110.814 63.939 110.814Z" fill="#CDE9FC"/>
<path d="M84.723 123.346C85.3476 123.346 85.854 122.84 85.854 122.215C85.854 121.59 85.3476 121.084 84.723 121.084C84.0984 121.084 83.592 121.59 83.592 122.215C83.592 122.84 84.0984 123.346 84.723 123.346Z" fill="#CDE9FC"/>
<path d="M105.508 135.879C106.427 135.879 107.172 135.134 107.172 134.215C107.172 133.296 106.427 132.551 105.508 132.551C104.589 132.551 103.844 133.296 103.844 134.215C103.844 135.134 104.589 135.879 105.508 135.879Z" fill="#CDE9FC"/>
<path d="M126.292 148.478C127.542 148.478 128.555 147.464 128.555 146.215C128.555 144.965 127.542 143.952 126.292 143.952C125.042 143.952 124.029 144.965 124.029 146.215C124.029 147.464 125.042 148.478 126.292 148.478Z" fill="#CDE9FC"/>
<path d="M147.077 161.276C148.768 161.276 150.138 159.905 150.138 158.215C150.138 156.524 148.768 155.154 147.077 155.154C145.386 155.154 144.016 156.524 144.016 158.215C144.016 159.905 145.386 161.276 147.077 161.276Z" fill="#CDE9FC"/>
<path d="M167.862 174.142C170.031 174.142 171.789 172.383 171.789 170.215C171.789 168.046 170.031 166.288 167.862 166.288C165.693 166.288 163.935 168.046 163.935 170.215C163.935 172.383 165.693 174.142 167.862 174.142Z" fill="#CDE9FC"/>
<path d="M188.646 187.206C191.402 187.206 193.637 184.971 193.637 182.215C193.637 179.458 191.402 177.224 188.646 177.224C185.89 177.224 183.655 179.458 183.655 182.215C183.655 184.971 185.89 187.206 188.646 187.206Z" fill="#CDE9FC"/>
<path d="M209.431 200.404C212.849 200.404 215.62 197.633 215.62 194.215C215.62 190.797 212.849 188.026 209.431 188.026C206.013 188.026 203.242 190.797 203.242 194.215C203.242 197.633 206.013 200.404 209.431 200.404Z" fill="#CDE9FC"/>
<path d="M230.215 213.669C234.332 213.669 237.669 210.331 237.669 206.215C237.669 202.098 234.332 198.761 230.215 198.761C226.098 198.761 222.761 202.098 222.761 206.215C222.761 210.331 226.098 213.669 230.215 213.669Z" fill="#CDE9FC"/>
<path d="M251 226.401C255.521 226.401 259.186 222.736 259.186 218.215C259.186 213.694 255.521 210.029 251 210.029C246.479 210.029 242.814 213.694 242.814 218.215C242.814 222.736 246.479 226.401 251 226.401Z" fill="#CDE9FC"/>
<path d="M271.785 237.802C275.975 237.802 279.372 234.405 279.372 230.215C279.372 226.025 275.975 222.628 271.785 222.628C267.595 222.628 264.198 226.025 264.198 230.215C264.198 234.405 267.595 237.802 271.785 237.802Z" fill="#CDE9FC"/>
<path d="M292.569 248.537C296.061 248.537 298.891 245.706 298.891 242.215C298.891 238.723 296.061 235.893 292.569 235.893C289.077 235.893 286.247 238.723 286.247 242.215C286.247 245.706 289.077 248.537 292.569 248.537Z" fill="#CDE9FC"/>
<path d="M313.354 259.339C316.184 259.339 318.478 257.045 318.478 254.215C318.478 251.385 316.184 249.091 313.354 249.091C310.524 249.091 308.23 251.385 308.23 254.215C308.23 257.045 310.524 259.339 313.354 259.339Z" fill="#CDE9FC"/>
<path d="M334.138 270.275C336.38 270.275 338.198 268.457 338.198 266.215C338.198 263.973 336.38 262.155 334.138 262.155C331.896 262.155 330.078 263.973 330.078 266.215C330.078 268.457 331.896 270.275 334.138 270.275Z" fill="#CDE9FC"/>
<path d="M354.923 281.343C356.651 281.343 358.051 279.942 358.051 278.215C358.051 276.487 356.651 275.087 354.923 275.087C353.195 275.087 351.795 276.487 351.795 278.215C351.795 279.942 353.195 281.343 354.923 281.343Z" fill="#CDE9FC"/>
<path d="M375.708 292.544C376.994 292.544 378.037 291.501 378.037 290.215C378.037 288.928 376.994 287.886 375.708 287.886C374.422 287.886 373.379 288.928 373.379 290.215C373.379 291.501 374.422 292.544 375.708 292.544Z" fill="#CDE9FC"/>
<path d="M396.492 303.945C397.447 303.945 398.222 303.17 398.222 302.215C398.222 301.259 397.447 300.485 396.492 300.485C395.536 300.485 394.762 301.259 394.762 302.215C394.762 303.17 395.536 303.945 396.492 303.945Z" fill="#CDE9FC"/>
<path d="M417.277 315.346C417.902 315.346 418.408 314.84 418.408 314.215C418.408 313.59 417.902 313.084 417.277 313.084C416.652 313.084 416.146 313.59 416.146 314.215C416.146 314.84 416.652 315.346 417.277 315.346Z" fill="#CDE9FC"/>
<path d="M438.061 326.881C438.429 326.881 438.727 326.583 438.727 326.215C438.727 325.847 438.429 325.549 438.061 325.549C437.693 325.549 437.395 325.847 437.395 326.215C437.395 326.583 437.693 326.881 438.061 326.881Z" fill="#CDE9FC"/>
<path d="M458.846 338.282C458.883 338.282 458.913 338.252 458.913 338.215C458.913 338.178 458.883 338.148 458.846 338.148C458.809 338.148 458.779 338.178 458.779 338.215C458.779 338.252 458.809 338.282 458.846 338.282Z" fill="#CDE9FC"/>
<path d="M31.154 119.067C31.191 119.067 31.221 119.037 31.221 119C31.221 118.963 31.191 118.933 31.154 118.933C31.117 118.933 31.087 118.963 31.087 119C31.087 119.037 31.117 119.067 31.154 119.067Z" fill="#CDE9FC"/>
<path d="M51.939 131.666C52.3068 131.666 52.605 131.368 52.605 131C52.605 130.632 52.3068 130.334 51.939 130.334C51.5712 130.334 51.273 130.632 51.273 131C51.273 131.368 51.5712 131.666 51.939 131.666Z" fill="#CDE9FC"/>
<path d="M72.723 144.131C73.3476 144.131 73.854 143.624 73.854 143C73.854 142.375 73.3476 141.869 72.723 141.869C72.0984 141.869 71.592 142.375 71.592 143C71.592 143.624 72.0984 144.131 72.723 144.131Z" fill="#CDE9FC"/>
<path d="M93.508 156.664C94.427 156.664 95.172 155.919 95.172 155C95.172 154.081 94.427 153.336 93.508 153.336C92.589 153.336 91.844 154.081 91.844 155C91.844 155.919 92.589 156.664 93.508 156.664Z" fill="#CDE9FC"/>
<path d="M114.292 169.329C115.578 169.329 116.621 168.286 116.621 167C116.621 165.714 115.578 164.671 114.292 164.671C113.006 164.671 111.963 165.714 111.963 167C111.963 168.286 113.006 169.329 114.292 169.329Z" fill="#CDE9FC"/>
<path d="M135.077 182.128C136.805 182.128 138.205 180.727 138.205 179C138.205 177.272 136.805 175.872 135.077 175.872C133.349 175.872 131.949 177.272 131.949 179C131.949 180.727 133.349 182.128 135.077 182.128Z" fill="#CDE9FC"/>
<path d="M155.862 195.06C158.104 195.06 159.922 193.242 159.922 191C159.922 188.758 158.104 186.94 155.862 186.94C153.62 186.94 151.802 188.758 151.802 191C151.802 193.242 153.62 195.06 155.862 195.06Z" fill="#CDE9FC"/>
<path d="M176.646 208.191C179.513 208.191 181.837 205.866 181.837 203C181.837 200.133 179.513 197.809 176.646 197.809C173.779 197.809 171.455 200.133 171.455 203C171.455 205.866 173.779 208.191 176.646 208.191Z" fill="#CDE9FC"/>
<path d="M197.431 221.522C201.033 221.522 203.953 218.602 203.953 215C203.953 211.398 201.033 208.478 197.431 208.478C193.829 208.478 190.909 211.398 190.909 215C190.909 218.602 193.829 221.522 197.431 221.522Z" fill="#CDE9FC"/>
<path d="M218.215 235.119C222.699 235.119 226.334 231.484 226.334 227C226.334 222.516 222.699 218.881 218.215 218.881C213.731 218.881 210.096 222.516 210.096 227C210.096 231.484 213.731 235.119 218.215 235.119Z" fill="#CDE9FC"/>
<path d="M239 248.384C244.183 248.384 248.384 244.182 248.384 239C248.384 233.817 244.183 229.616 239 229.616C233.817 229.616 229.616 233.817 229.616 239C229.616 244.182 233.817 248.384 239 248.384Z" fill="#CDE9FC"/>
<path d="M259.785 259.319C264.379 259.319 268.104 255.594 268.104 251C268.104 246.405 264.379 242.681 259.785 242.681C255.191 242.681 251.466 246.405 251.466 251C251.466 255.594 255.191 259.319 259.785 259.319Z" fill="#CDE9FC"/>
<path d="M280.569 269.722C284.281 269.722 287.291 266.712 287.291 263C287.291 259.287 284.281 256.278 280.569 256.278C276.857 256.278 273.847 259.287 273.847 263C273.847 266.712 276.857 269.722 280.569 269.722Z" fill="#CDE9FC"/>
<path d="M301.354 280.324C304.294 280.324 306.678 277.94 306.678 275C306.678 272.059 304.294 269.676 301.354 269.676C298.414 269.676 296.03 272.059 296.03 275C296.03 277.94 298.414 280.324 301.354 280.324Z" fill="#CDE9FC"/>
<path d="M322.138 291.193C324.454 291.193 326.331 289.315 326.331 287C326.331 284.684 324.454 282.807 322.138 282.807C319.822 282.807 317.945 284.684 317.945 287C317.945 289.315 319.822 291.193 322.138 291.193Z" fill="#CDE9FC"/>
<path d="M342.923 302.194C344.687 302.194 346.117 300.764 346.117 299C346.117 297.236 344.687 295.806 342.923 295.806C341.159 295.806 339.729 297.236 339.729 299C339.729 300.764 341.159 302.194 342.923 302.194Z" fill="#CDE9FC"/>
<path d="M363.708 313.396C365.031 313.396 366.104 312.323 366.104 311C366.104 309.676 365.031 308.604 363.708 308.604C362.385 308.604 361.312 309.676 361.312 311C361.312 312.323 362.385 313.396 363.708 313.396Z" fill="#CDE9FC"/>
<path d="M384.492 324.73C385.447 324.73 386.222 323.955 386.222 323C386.222 322.044 385.447 321.27 384.492 321.27C383.536 321.27 382.762 322.044 382.762 323C382.762 323.955 383.536 324.73 384.492 324.73Z" fill="#CDE9FC"/>
<path d="M405.277 336.198C405.939 336.198 406.475 335.661 406.475 335C406.475 334.338 405.939 333.802 405.277 333.802C404.615 333.802 404.079 334.338 404.079 335C404.079 335.661 404.615 336.198 405.277 336.198Z" fill="#CDE9FC"/>
<path d="M426.061 347.732C426.465 347.732 426.793 347.404 426.793 347C426.793 346.595 426.465 346.268 426.061 346.268C425.657 346.268 425.329 346.595 425.329 347C425.329 347.404 425.657 347.732 426.061 347.732Z" fill="#CDE9FC"/>
<path d="M446.846 359.133C446.919 359.133 446.979 359.073 446.979 359C446.979 358.926 446.919 358.867 446.846 358.867C446.773 358.867 446.713 358.926 446.713 359C446.713 359.073 446.773 359.133 446.846 359.133Z" fill="#CDE9FC"/>
<path d="M19.154 139.852C19.191 139.852 19.221 139.822 19.221 139.785C19.221 139.748 19.191 139.718 19.154 139.718C19.117 139.718 19.087 139.748 19.087 139.785C19.087 139.822 19.117 139.852 19.154 139.852Z" fill="#CDE9FC"/>
<path d="M39.939 152.451C40.3068 152.451 40.605 152.152 40.605 151.785C40.605 151.417 40.3068 151.119 39.939 151.119C39.5712 151.119 39.273 151.417 39.273 151.785C39.273 152.152 39.5712 152.451 39.939 152.451Z" fill="#CDE9FC"/>
<path d="M60.723 164.916C61.3476 164.916 61.854 164.409 61.854 163.785C61.854 163.16 61.3476 162.654 60.723 162.654C60.0984 162.654 59.592 163.16 59.592 163.785C59.592 164.409 60.0984 164.916 60.723 164.916Z" fill="#CDE9FC"/>
<path d="M81.508 177.449C82.427 177.449 83.172 176.704 83.172 175.785C83.172 174.866 82.427 174.121 81.508 174.121C80.589 174.121 79.844 174.866 79.844 175.785C79.844 176.704 80.589 177.449 81.508 177.449Z" fill="#CDE9FC"/>
<path d="M102.292 190.048C103.542 190.048 104.555 189.035 104.555 187.785C104.555 186.535 103.542 185.522 102.292 185.522C101.042 185.522 100.029 186.535 100.029 187.785C100.029 189.035 101.042 190.048 102.292 190.048Z" fill="#CDE9FC"/>
<path d="M123.077 202.846C124.768 202.846 126.138 201.475 126.138 199.785C126.138 198.094 124.768 196.724 123.077 196.724C121.386 196.724 120.016 198.094 120.016 199.785C120.016 201.475 121.386 202.846 123.077 202.846Z" fill="#CDE9FC"/>
<path d="M143.862 215.712C146.031 215.712 147.789 213.954 147.789 211.785C147.789 209.616 146.031 207.858 143.862 207.858C141.693 207.858 139.935 209.616 139.935 211.785C139.935 213.954 141.693 215.712 143.862 215.712Z" fill="#CDE9FC"/>
<path d="M164.646 228.776C167.402 228.776 169.637 226.541 169.637 223.785C169.637 221.028 167.402 218.794 164.646 218.794C161.89 218.794 159.655 221.028 159.655 223.785C159.655 226.541 161.89 228.776 164.646 228.776Z" fill="#CDE9FC"/>
<path d="M185.431 242.041C188.886 242.041 191.687 239.24 191.687 235.785C191.687 232.33 188.886 229.529 185.431 229.529C181.976 229.529 179.175 232.33 179.175 235.785C179.175 239.24 181.976 242.041 185.431 242.041Z" fill="#CDE9FC"/>
<path d="M206.215 255.305C210.368 255.305 213.735 251.938 213.735 247.785C213.735 243.631 210.368 240.265 206.215 240.265C202.062 240.265 198.695 243.631 198.695 247.785C198.695 251.938 202.062 255.305 206.215 255.305Z" fill="#CDE9FC"/>
<path d="M227 268.037C231.557 268.037 235.252 264.342 235.252 259.785C235.252 255.227 231.557 251.533 227 251.533C222.443 251.533 218.748 255.227 218.748 259.785C218.748 264.342 222.443 268.037 227 268.037Z" fill="#CDE9FC"/>
<path d="M247.785 279.438C252.012 279.438 255.438 276.011 255.438 271.785C255.438 267.558 252.012 264.132 247.785 264.132C243.558 264.132 240.132 267.558 240.132 271.785C240.132 276.011 243.558 279.438 247.785 279.438Z" fill="#CDE9FC"/>
<path d="M268.569 290.174C272.098 290.174 274.958 287.313 274.958 283.785C274.958 280.256 272.098 277.396 268.569 277.396C265.04 277.396 262.18 280.256 262.18 283.785C262.18 287.313 265.04 290.174 268.569 290.174Z" fill="#CDE9FC"/>
<path d="M289.354 300.909C292.184 300.909 294.478 298.615 294.478 295.785C294.478 292.955 292.184 290.661 289.354 290.661C286.524 290.661 284.23 292.955 284.23 295.785C284.23 298.615 286.524 300.909 289.354 300.909Z" fill="#CDE9FC"/>
<path d="M310.138 311.845C312.38 311.845 314.198 310.027 314.198 307.785C314.198 305.542 312.38 303.725 310.138 303.725C307.896 303.725 306.078 305.542 306.078 307.785C306.078 310.027 307.896 311.845 310.138 311.845Z" fill="#CDE9FC"/>
<path d="M330.923 322.913C332.651 322.913 334.051 321.512 334.051 319.785C334.051 318.057 332.651 316.657 330.923 316.657C329.195 316.657 327.795 318.057 327.795 319.785C327.795 321.512 329.195 322.913 330.923 322.913Z" fill="#CDE9FC"/>
<path d="M351.708 334.114C352.994 334.114 354.037 333.071 354.037 331.785C354.037 330.498 352.994 329.456 351.708 329.456C350.422 329.456 349.379 330.498 349.379 331.785C349.379 333.071 350.422 334.114 351.708 334.114Z" fill="#CDE9FC"/>
<path d="M372.492 345.515C373.447 345.515 374.222 344.74 374.222 343.785C374.222 342.829 373.447 342.055 372.492 342.055C371.537 342.055 370.762 342.829 370.762 343.785C370.762 344.74 371.537 345.515 372.492 345.515Z" fill="#CDE9FC"/>
<path d="M393.277 356.916C393.902 356.916 394.408 356.409 394.408 355.785C394.408 355.16 393.902 354.654 393.277 354.654C392.652 354.654 392.146 355.16 392.146 355.785C392.146 356.409 392.652 356.916 393.277 356.916Z" fill="#CDE9FC"/>
<path d="M414.061 368.451C414.429 368.451 414.727 368.152 414.727 367.785C414.727 367.417 414.429 367.119 414.061 367.119C413.693 367.119 413.395 367.417 413.395 367.785C413.395 368.152 413.693 368.451 414.061 368.451Z" fill="#CDE9FC"/>
<path d="M434.846 379.852C434.883 379.852 434.913 379.822 434.913 379.785C434.913 379.748 434.883 379.718 434.846 379.718C434.809 379.718 434.779 379.748 434.779 379.785C434.779 379.822 434.809 379.852 434.846 379.852Z" fill="#CDE9FC"/>
<path d="M27.939 173.101C28.2328 173.101 28.471 172.862 28.471 172.569C28.471 172.275 28.2328 172.037 27.939 172.037C27.6452 172.037 27.407 172.275 27.407 172.569C27.407 172.862 27.6452 173.101 27.939 173.101Z" fill="#CDE9FC"/>
<path d="M48.723 185.567C49.2742 185.567 49.721 185.12 49.721 184.569C49.721 184.018 49.2742 183.571 48.723 183.571C48.1718 183.571 47.725 184.018 47.725 184.569C47.725 185.12 48.1718 185.567 48.723 185.567Z" fill="#CDE9FC"/>
<path d="M69.508 198.1C70.3535 198.1 71.039 197.414 71.039 196.569C71.039 195.723 70.3535 195.038 69.508 195.038C68.6624 195.038 67.977 195.723 67.977 196.569C67.977 197.414 68.6624 198.1 69.508 198.1Z" fill="#CDE9FC"/>
<path d="M90.292 210.699C91.4684 210.699 92.422 209.745 92.422 208.569C92.422 207.393 91.4684 206.439 90.292 206.439C89.1156 206.439 88.162 207.393 88.162 208.569C88.162 209.745 89.1156 210.699 90.292 210.699Z" fill="#CDE9FC"/>
<path d="M111.077 223.364C112.621 223.364 113.872 222.113 113.872 220.569C113.872 219.025 112.621 217.774 111.077 217.774C109.533 217.774 108.282 219.025 108.282 220.569C108.282 222.113 109.533 223.364 111.077 223.364Z" fill="#CDE9FC"/>
<path d="M131.862 236.163C133.847 236.163 135.456 234.554 135.456 232.569C135.456 230.584 133.847 228.975 131.862 228.975C129.877 228.975 128.268 230.584 128.268 232.569C128.268 234.554 129.877 236.163 131.862 236.163Z" fill="#CDE9FC"/>
<path d="M152.646 249.094C155.145 249.094 157.171 247.068 157.171 244.569C157.171 242.07 155.145 240.044 152.646 240.044C150.147 240.044 148.121 242.07 148.121 244.569C148.121 247.068 150.147 249.094 152.646 249.094Z" fill="#CDE9FC"/>
<path d="M173.431 262.026C176.445 262.026 178.888 259.583 178.888 256.569C178.888 253.555 176.445 251.112 173.431 251.112C170.417 251.112 167.974 253.555 167.974 256.569C167.974 259.583 170.417 262.026 173.431 262.026Z" fill="#CDE9FC"/>
<path d="M194.215 274.825C197.67 274.825 200.471 272.024 200.471 268.569C200.471 265.113 197.67 262.312 194.215 262.312C190.76 262.312 187.959 265.113 187.959 268.569C187.959 272.024 190.76 274.825 194.215 274.825Z" fill="#CDE9FC"/>
<path d="M215 287.224C218.675 287.224 221.655 284.244 221.655 280.569C221.655 276.893 218.675 273.914 215 273.914C211.325 273.914 208.345 276.893 208.345 280.569C208.345 284.244 211.325 287.224 215 287.224Z" fill="#CDE9FC"/>
<path d="M235.785 298.891C239.277 298.891 242.107 296.06 242.107 292.569C242.107 289.077 239.277 286.247 235.785 286.247C232.293 286.247 229.463 289.077 229.463 292.569C229.463 296.06 232.293 298.891 235.785 298.891Z" fill="#CDE9FC"/>
<path d="M256.569 310.093C259.62 310.093 262.093 307.62 262.093 304.569C262.093 301.518 259.62 299.045 256.569 299.045C253.518 299.045 251.045 301.518 251.045 304.569C251.045 307.62 253.518 310.093 256.569 310.093Z" fill="#CDE9FC"/>
<path d="M277.354 321.161C279.89 321.161 281.946 319.105 281.946 316.569C281.946 314.032 279.89 311.977 277.354 311.977C274.818 311.977 272.762 314.032 272.762 316.569C272.762 319.105 274.818 321.161 277.354 321.161Z" fill="#CDE9FC"/>
<path d="M298.138 332.296C300.196 332.296 301.865 330.627 301.865 328.569C301.865 326.51 300.196 324.842 298.138 324.842C296.08 324.842 294.411 326.51 294.411 328.569C294.411 330.627 296.08 332.296 298.138 332.296Z" fill="#CDE9FC"/>
<path d="M318.923 343.497C320.54 343.497 321.851 342.186 321.851 340.569C321.851 338.952 320.54 337.641 318.923 337.641C317.306 337.641 315.995 338.952 315.995 340.569C315.995 342.186 317.306 343.497 318.923 343.497Z" fill="#CDE9FC"/>
<path d="M339.708 354.765C340.921 354.765 341.904 353.781 341.904 352.569C341.904 351.356 340.921 350.373 339.708 350.373C338.495 350.373 337.512 351.356 337.512 352.569C337.512 353.781 338.495 354.765 339.708 354.765Z" fill="#CDE9FC"/>
<path d="M360.492 366.166C361.374 366.166 362.089 365.451 362.089 364.569C362.089 363.687 361.374 362.972 360.492 362.972C359.61 362.972 358.895 363.687 358.895 364.569C358.895 365.451 359.61 366.166 360.492 366.166Z" fill="#CDE9FC"/>
<path d="M381.277 377.634C381.865 377.634 382.342 377.157 382.342 376.569C382.342 375.981 381.865 375.504 381.277 375.504C380.689 375.504 380.212 375.981 380.212 376.569C380.212 377.157 380.689 377.634 381.277 377.634Z" fill="#CDE9FC"/>
<path d="M402.061 389.168C402.392 389.168 402.66 388.9 402.66 388.569C402.66 388.238 402.392 387.97 402.061 387.97C401.73 387.97 401.462 388.238 401.462 388.569C401.462 388.9 401.73 389.168 402.061 389.168Z" fill="#CDE9FC"/>
<path d="M15.939 193.753C16.1593 193.753 16.338 193.574 16.338 193.354C16.338 193.133 16.1593 192.955 15.939 192.955C15.7186 192.955 15.54 193.133 15.54 193.354C15.54 193.574 15.7186 193.753 15.939 193.753Z" fill="#CDE9FC"/>
<path d="M36.723 206.219C37.2008 206.219 37.588 205.832 37.588 205.354C37.588 204.876 37.2008 204.489 36.723 204.489C36.2453 204.489 35.858 204.876 35.858 205.354C35.858 205.832 36.2453 206.219 36.723 206.219Z" fill="#CDE9FC"/>
<path d="M57.508 218.685C58.2431 218.685 58.839 218.089 58.839 217.354C58.839 216.619 58.2431 216.023 57.508 216.023C56.7729 216.023 56.177 216.619 56.177 217.354C56.177 218.089 56.7729 218.685 57.508 218.685Z" fill="#CDE9FC"/>
<path d="M78.292 231.217C79.3209 231.217 80.155 230.383 80.155 229.354C80.155 228.325 79.3209 227.491 78.292 227.491C77.2631 227.491 76.429 228.325 76.429 229.354C76.429 230.383 77.2631 231.217 78.292 231.217Z" fill="#CDE9FC"/>
<path d="M99.077 243.816C100.437 243.816 101.539 242.713 101.539 241.354C101.539 239.994 100.437 238.892 99.077 238.892C97.7173 238.892 96.615 239.994 96.615 241.354C96.615 242.713 97.7173 243.816 99.077 243.816Z" fill="#CDE9FC"/>
<path d="M119.862 256.482C121.59 256.482 122.99 255.081 122.99 253.354C122.99 251.626 121.59 250.226 119.862 250.226C118.134 250.226 116.734 251.626 116.734 253.354C116.734 255.081 118.134 256.482 119.862 256.482Z" fill="#CDE9FC"/>
<path d="M140.646 269.214C142.778 269.214 144.506 267.485 144.506 265.354C144.506 263.222 142.778 261.494 140.646 261.494C138.514 261.494 136.786 263.222 136.786 265.354C136.786 267.485 138.514 269.214 140.646 269.214Z" fill="#CDE9FC"/>
<path d="M161.431 281.879C163.93 281.879 165.956 279.853 165.956 277.354C165.956 274.855 163.93 272.829 161.431 272.829C158.932 272.829 156.906 274.855 156.906 277.354C156.906 279.853 158.932 281.879 161.431 281.879Z" fill="#CDE9FC"/>
<path d="M182.215 294.412C185.008 294.412 187.273 292.147 187.273 289.354C187.273 286.56 185.008 284.296 182.215 284.296C179.422 284.296 177.157 286.56 177.157 289.354C177.157 292.147 179.422 294.412 182.215 294.412Z" fill="#CDE9FC"/>
<path d="M203 306.612C205.904 306.612 208.258 304.258 208.258 301.354C208.258 298.45 205.904 296.096 203 296.096C200.096 296.096 197.742 298.45 197.742 301.354C197.742 304.258 200.096 306.612 203 306.612Z" fill="#CDE9FC"/>
<path d="M223.785 318.478C226.615 318.478 228.909 316.184 228.909 313.354C228.909 310.524 226.615 308.23 223.785 308.23C220.955 308.23 218.661 310.524 218.661 313.354C218.661 316.184 220.955 318.478 223.785 318.478Z" fill="#CDE9FC"/>
<path d="M244.569 329.946C247.105 329.946 249.161 327.89 249.161 325.354C249.161 322.818 247.105 320.762 244.569 320.762C242.033 320.762 239.977 322.818 239.977 325.354C239.977 327.89 242.033 329.946 244.569 329.946Z" fill="#CDE9FC"/>
<path d="M265.354 341.281C267.523 341.281 269.281 339.523 269.281 337.354C269.281 335.185 267.523 333.427 265.354 333.427C263.185 333.427 261.427 335.185 261.427 337.354C261.427 339.523 263.185 341.281 265.354 341.281Z" fill="#CDE9FC"/>
<path d="M286.138 352.548C287.902 352.548 289.332 351.118 289.332 349.354C289.332 347.59 287.902 346.16 286.138 346.16C284.374 346.16 282.944 347.59 282.944 349.354C282.944 351.118 284.374 352.548 286.138 352.548Z" fill="#CDE9FC"/>
<path d="M306.923 363.883C308.32 363.883 309.452 362.75 309.452 361.354C309.452 359.957 308.32 358.825 306.923 358.825C305.526 358.825 304.394 359.957 304.394 361.354C304.394 362.75 305.526 363.883 306.923 363.883Z" fill="#CDE9FC"/>
<path d="M327.708 375.284C328.774 375.284 329.638 374.42 329.638 373.354C329.638 372.288 328.774 371.424 327.708 371.424C326.642 371.424 325.778 372.288 325.778 373.354C325.778 374.42 326.642 375.284 327.708 375.284Z" fill="#CDE9FC"/>
<path d="M348.492 386.752C349.264 386.752 349.89 386.126 349.89 385.354C349.89 384.581 349.264 383.956 348.492 383.956C347.72 383.956 347.094 384.581 347.094 385.354C347.094 386.126 347.72 386.752 348.492 386.752Z" fill="#CDE9FC"/>
<path d="M369.277 398.286C369.792 398.286 370.209 397.869 370.209 397.354C370.209 396.839 369.792 396.422 369.277 396.422C368.762 396.422 368.345 396.839 368.345 397.354C368.345 397.869 368.762 398.286 369.277 398.286Z" fill="#CDE9FC"/>
<path d="M390.061 409.753C390.281 409.753 390.46 409.574 390.46 409.354C390.46 409.133 390.281 408.955 390.061 408.955C389.841 408.955 389.662 409.133 389.662 409.354C389.662 409.574 389.841 409.753 390.061 409.753Z" fill="#CDE9FC"/>
<path d="M3.93903 214.271C4.01248 214.271 4.07204 214.211 4.07204 214.138C4.07204 214.064 4.01248 214.005 3.93903 214.005C3.86557 214.005 3.80603 214.064 3.80603 214.138C3.80603 214.211 3.86557 214.271 3.93903 214.271Z" fill="#CDE9FC"/>
<path d="M24.723 226.804C25.0908 226.804 25.389 226.506 25.389 226.138C25.389 225.77 25.0908 225.472 24.723 225.472C24.3552 225.472 24.057 225.77 24.057 226.138C24.057 226.506 24.3552 226.804 24.723 226.804Z" fill="#CDE9FC"/>
<path d="M45.508 239.269C46.1326 239.269 46.639 238.762 46.639 238.138C46.639 237.513 46.1326 237.007 45.508 237.007C44.8834 237.007 44.377 237.513 44.377 238.138C44.377 238.762 44.8834 239.269 45.508 239.269Z" fill="#CDE9FC"/>
<path d="M66.292 251.735C67.174 251.735 67.889 251.02 67.889 250.138C67.889 249.256 67.174 248.541 66.292 248.541C65.41 248.541 64.695 249.256 64.695 250.138C64.695 251.02 65.41 251.735 66.292 251.735Z" fill="#CDE9FC"/>
<path d="M87.077 264.201C88.2164 264.201 89.14 263.277 89.14 262.138C89.14 260.998 88.2164 260.075 87.077 260.075C85.9377 260.075 85.014 260.998 85.014 262.138C85.014 263.277 85.9377 264.201 87.077 264.201Z" fill="#CDE9FC"/>
<path d="M107.862 276.733C109.295 276.733 110.457 275.571 110.457 274.138C110.457 272.705 109.295 271.543 107.862 271.543C106.429 271.543 105.267 272.705 105.267 274.138C105.267 275.571 106.429 276.733 107.862 276.733Z" fill="#CDE9FC"/>
<path d="M128.646 289.266C130.374 289.266 131.774 287.865 131.774 286.138C131.774 284.41 130.374 283.01 128.646 283.01C126.918 283.01 125.518 284.41 125.518 286.138C125.518 287.865 126.918 289.266 128.646 289.266Z" fill="#CDE9FC"/>
<path d="M149.431 301.798C151.452 301.798 153.091 300.159 153.091 298.138C153.091 296.116 151.452 294.478 149.431 294.478C147.41 294.478 145.771 296.116 145.771 298.138C145.771 300.159 147.41 301.798 149.431 301.798Z" fill="#CDE9FC"/>
<path d="M170.215 314.131C172.42 314.131 174.208 312.343 174.208 310.138C174.208 307.932 172.42 306.145 170.215 306.145C168.01 306.145 166.222 307.932 166.222 310.138C166.222 312.343 168.01 314.131 170.215 314.131Z" fill="#CDE9FC"/>
<path d="M191 326.264C193.279 326.264 195.126 324.416 195.126 322.138C195.126 319.859 193.279 318.012 191 318.012C188.721 318.012 186.874 319.859 186.874 322.138C186.874 324.416 188.721 326.264 191 326.264Z" fill="#CDE9FC"/>
<path d="M211.785 338.198C214.027 338.198 215.845 336.38 215.845 334.138C215.845 331.895 214.027 330.078 211.785 330.078C209.543 330.078 207.725 331.895 207.725 334.138C207.725 336.38 209.543 338.198 211.785 338.198Z" fill="#CDE9FC"/>
<path d="M232.569 349.865C234.627 349.865 236.296 348.196 236.296 346.138C236.296 344.079 234.627 342.411 232.569 342.411C230.511 342.411 228.842 344.079 228.842 346.138C228.842 348.196 230.511 349.865 232.569 349.865Z" fill="#CDE9FC"/>
<path d="M253.354 361.332C255.118 361.332 256.548 359.902 256.548 358.138C256.548 356.374 255.118 354.944 253.354 354.944C251.59 354.944 250.16 356.374 250.16 358.138C250.16 359.902 251.59 361.332 253.354 361.332Z" fill="#CDE9FC"/>
<path d="M274.138 372.8C275.608 372.8 276.8 371.608 276.8 370.138C276.8 368.667 275.608 367.476 274.138 367.476C272.668 367.476 271.476 368.667 271.476 370.138C271.476 371.608 272.668 372.8 274.138 372.8Z" fill="#CDE9FC"/>
<path d="M294.923 384.268C296.099 384.268 297.053 383.314 297.053 382.138C297.053 380.961 296.099 380.008 294.923 380.008C293.747 380.008 292.793 380.961 292.793 382.138C292.793 383.314 293.747 384.268 294.923 384.268Z" fill="#CDE9FC"/>
<path d="M315.708 395.735C316.59 395.735 317.305 395.02 317.305 394.138C317.305 393.256 316.59 392.541 315.708 392.541C314.826 392.541 314.111 393.256 314.111 394.138C314.111 395.02 314.826 395.735 315.708 395.735Z" fill="#CDE9FC"/>
<path d="M336.492 407.269C337.117 407.269 337.623 406.762 337.623 406.138C337.623 405.513 337.117 405.007 336.492 405.007C335.867 405.007 335.361 405.513 335.361 406.138C335.361 406.762 335.867 407.269 336.492 407.269Z" fill="#CDE9FC"/>
<path d="M357.277 418.87C357.681 418.87 358.009 418.542 358.009 418.138C358.009 417.733 357.681 417.406 357.277 417.406C356.873 417.406 356.545 417.733 356.545 418.138C356.545 418.542 356.873 418.87 357.277 418.87Z" fill="#CDE9FC"/>
<path d="M378.061 430.338C378.171 430.338 378.261 430.248 378.261 430.138C378.261 430.027 378.171 429.938 378.061 429.938C377.951 429.938 377.861 430.027 377.861 430.138C377.861 430.248 377.951 430.338 378.061 430.338Z" fill="#CDE9FC"/>
<path d="M12.723 247.322C12.9433 247.322 13.122 247.143 13.122 246.923C13.122 246.703 12.9433 246.524 12.723 246.524C12.5026 246.524 12.324 246.703 12.324 246.923C12.324 247.143 12.5026 247.322 12.723 247.322Z" fill="#CDE9FC"/>
<path d="M33.508 259.788C33.9857 259.788 34.373 259.4 34.373 258.923C34.373 258.445 33.9857 258.058 33.508 258.058C33.0303 258.058 32.643 258.445 32.643 258.923C32.643 259.4 33.0303 259.788 33.508 259.788Z" fill="#CDE9FC"/>
<path d="M54.292 272.187C54.9901 272.187 55.556 271.621 55.556 270.923C55.556 270.225 54.9901 269.659 54.292 269.659C53.5939 269.659 53.028 270.225 53.028 270.923C53.028 271.621 53.5939 272.187 54.292 272.187Z" fill="#CDE9FC"/>
<path d="M75.077 284.587C75.996 284.587 76.741 283.842 76.741 282.923C76.741 282.004 75.996 281.259 75.077 281.259C74.158 281.259 73.413 282.004 73.413 282.923C73.413 283.842 74.158 284.587 75.077 284.587Z" fill="#CDE9FC"/>
<path d="M95.862 296.986C97.0014 296.986 97.925 296.062 97.925 294.923C97.925 293.784 97.0014 292.86 95.862 292.86C94.7227 292.86 93.799 293.784 93.799 294.923C93.799 296.062 94.7227 296.986 95.862 296.986Z" fill="#CDE9FC"/>
<path d="M116.646 309.385C118.006 309.385 119.108 308.283 119.108 306.923C119.108 305.563 118.006 304.461 116.646 304.461C115.286 304.461 114.184 305.563 114.184 306.923C114.184 308.283 115.286 309.385 116.646 309.385Z" fill="#CDE9FC"/>
<path d="M137.431 321.785C139.012 321.785 140.293 320.503 140.293 318.923C140.293 317.342 139.012 316.061 137.431 316.061C135.85 316.061 134.569 317.342 134.569 318.923C134.569 320.503 135.85 321.785 137.431 321.785Z" fill="#CDE9FC"/>
<path d="M158.215 333.984C159.906 333.984 161.276 332.613 161.276 330.923C161.276 329.232 159.906 327.862 158.215 327.862C156.524 327.862 155.154 329.232 155.154 330.923C155.154 332.613 156.524 333.984 158.215 333.984Z" fill="#CDE9FC"/>
<path d="M179 346.117C180.764 346.117 182.194 344.687 182.194 342.923C182.194 341.159 180.764 339.729 179 339.729C177.236 339.729 175.806 341.159 175.806 342.923C175.806 344.687 177.236 346.117 179 346.117Z" fill="#CDE9FC"/>
<path d="M199.785 358.051C201.513 358.051 202.913 356.65 202.913 354.923C202.913 353.195 201.513 351.795 199.785 351.795C198.057 351.795 196.657 353.195 196.657 354.923C196.657 356.65 198.057 358.051 199.785 358.051Z" fill="#CDE9FC"/>
<path d="M220.569 369.785C222.15 369.785 223.431 368.503 223.431 366.923C223.431 365.342 222.15 364.061 220.569 364.061C218.988 364.061 217.707 365.342 217.707 366.923C217.707 368.503 218.988 369.785 220.569 369.785Z" fill="#CDE9FC"/>
<path d="M241.354 381.452C242.751 381.452 243.883 380.319 243.883 378.923C243.883 377.526 242.751 376.394 241.354 376.394C239.957 376.394 238.825 377.526 238.825 378.923C238.825 380.319 239.957 381.452 241.354 381.452Z" fill="#CDE9FC"/>
<path d="M262.138 393.053C263.314 393.053 264.268 392.099 264.268 390.923C264.268 389.747 263.314 388.793 262.138 388.793C260.962 388.793 260.008 389.747 260.008 390.923C260.008 392.099 260.962 393.053 262.138 393.053Z" fill="#CDE9FC"/>
<path d="M282.923 404.653C283.878 404.653 284.653 403.878 284.653 402.923C284.653 401.967 283.878 401.193 282.923 401.193C281.968 401.193 281.193 401.967 281.193 402.923C281.193 403.878 281.968 404.653 282.923 404.653Z" fill="#CDE9FC"/>
<path d="M303.708 416.187C304.406 416.187 304.972 415.621 304.972 414.923C304.972 414.225 304.406 413.659 303.708 413.659C303.01 413.659 302.444 414.225 302.444 414.923C302.444 415.621 303.01 416.187 303.708 416.187Z" fill="#CDE9FC"/>
<path d="M324.492 427.788C324.97 427.788 325.357 427.4 325.357 426.923C325.357 426.445 324.97 426.058 324.492 426.058C324.014 426.058 323.627 426.445 323.627 426.923C323.627 427.4 324.014 427.788 324.492 427.788Z" fill="#CDE9FC"/>
<path d="M345.277 439.389C345.534 439.389 345.743 439.18 345.743 438.923C345.743 438.665 345.534 438.457 345.277 438.457C345.02 438.457 344.811 438.665 344.811 438.923C344.811 439.18 345.02 439.389 345.277 439.389Z" fill="#CDE9FC"/>
<path d="M0.723007 267.775C0.76001 267.775 0.789993 267.745 0.789993 267.708C0.789993 267.671 0.76001 267.641 0.723007 267.641C0.686004 267.641 0.656006 267.671 0.656006 267.708C0.656006 267.745 0.686004 267.775 0.723007 267.775Z" fill="#CDE9FC"/>
<path d="M21.508 280.24C21.8018 280.24 22.04 280.002 22.04 279.708C22.04 279.414 21.8018 279.176 21.508 279.176C21.2142 279.176 20.976 279.414 20.976 279.708C20.976 280.002 21.2142 280.24 21.508 280.24Z" fill="#CDE9FC"/>
<path d="M42.292 292.64C42.8067 292.64 43.224 292.223 43.224 291.708C43.224 291.193 42.8067 290.776 42.292 290.776C41.7773 290.776 41.36 291.193 41.36 291.708C41.36 292.223 41.7773 292.64 42.292 292.64Z" fill="#CDE9FC"/>
<path d="M63.077 304.972C63.7751 304.972 64.341 304.406 64.341 303.708C64.341 303.01 63.7751 302.444 63.077 302.444C62.3789 302.444 61.813 303.01 61.813 303.708C61.813 304.406 62.3789 304.972 63.077 304.972Z" fill="#CDE9FC"/>
<path d="M83.862 317.305C84.744 317.305 85.459 316.59 85.459 315.708C85.459 314.826 84.744 314.111 83.862 314.111C82.98 314.111 82.265 314.826 82.265 315.708C82.265 316.59 82.98 317.305 83.862 317.305Z" fill="#CDE9FC"/>
<path d="M104.646 329.571C105.675 329.571 106.509 328.737 106.509 327.708C106.509 326.679 105.675 325.845 104.646 325.845C103.617 325.845 102.783 326.679 102.783 327.708C102.783 328.737 103.617 329.571 104.646 329.571Z" fill="#CDE9FC"/>
<path d="M125.431 341.838C126.607 341.838 127.561 340.884 127.561 339.708C127.561 338.531 126.607 337.578 125.431 337.578C124.255 337.578 123.301 338.531 123.301 339.708C123.301 340.884 124.255 341.838 125.431 341.838Z" fill="#CDE9FC"/>
<path d="M146.215 354.037C147.501 354.037 148.544 352.994 148.544 351.708C148.544 350.422 147.501 349.379 146.215 349.379C144.929 349.379 143.886 350.422 143.886 351.708C143.886 352.994 144.929 354.037 146.215 354.037Z" fill="#CDE9FC"/>
<path d="M167 366.104C168.323 366.104 169.396 365.031 169.396 363.708C169.396 362.384 168.323 361.312 167 361.312C165.677 361.312 164.604 362.384 164.604 363.708C164.604 365.031 165.677 366.104 167 366.104Z" fill="#CDE9FC"/>
<path d="M187.785 378.037C189.071 378.037 190.114 376.994 190.114 375.708C190.114 374.422 189.071 373.379 187.785 373.379C186.499 373.379 185.456 374.422 185.456 375.708C185.456 376.994 186.499 378.037 187.785 378.037Z" fill="#CDE9FC"/>
<path d="M208.569 389.904C209.782 389.904 210.765 388.921 210.765 387.708C210.765 386.495 209.782 385.512 208.569 385.512C207.356 385.512 206.373 386.495 206.373 387.708C206.373 388.921 207.356 389.904 208.569 389.904Z" fill="#CDE9FC"/>
<path d="M229.354 401.638C230.42 401.638 231.284 400.774 231.284 399.708C231.284 398.642 230.42 397.778 229.354 397.778C228.288 397.778 227.424 398.642 227.424 399.708C227.424 400.774 228.288 401.638 229.354 401.638Z" fill="#CDE9FC"/>
<path d="M250.138 413.305C251.02 413.305 251.735 412.59 251.735 411.708C251.735 410.826 251.02 410.111 250.138 410.111C249.256 410.111 248.541 410.826 248.541 411.708C248.541 412.59 249.256 413.305 250.138 413.305Z" fill="#CDE9FC"/>
<path d="M270.923 424.972C271.621 424.972 272.187 424.406 272.187 423.708C272.187 423.01 271.621 422.444 270.923 422.444C270.225 422.444 269.659 423.01 269.659 423.708C269.659 424.406 270.225 424.972 270.923 424.972Z" fill="#CDE9FC"/>
<path d="M291.708 436.64C292.223 436.64 292.64 436.223 292.64 435.708C292.64 435.193 292.223 434.776 291.708 434.776C291.193 434.776 290.776 435.193 290.776 435.708C290.776 436.223 291.193 436.64 291.708 436.64Z" fill="#CDE9FC"/>
<path d="M312.492 448.307C312.823 448.307 313.091 448.039 313.091 447.708C313.091 447.377 312.823 447.109 312.492 447.109C312.161 447.109 311.893 447.377 311.893 447.708C311.893 448.039 312.161 448.307 312.492 448.307Z" fill="#CDE9FC"/>
<path d="M333.277 459.775C333.314 459.775 333.344 459.745 333.344 459.708C333.344 459.671 333.314 459.641 333.277 459.641C333.24 459.641 333.21 459.671 333.21 459.708C333.21 459.745 333.24 459.775 333.277 459.775Z" fill="#CDE9FC"/>
<path d="M9.508 300.625C9.58145 300.625 9.64101 300.565 9.64101 300.492C9.64101 300.418 9.58145 300.359 9.508 300.359C9.43454 300.359 9.375 300.418 9.375 300.492C9.375 300.565 9.43454 300.625 9.508 300.625Z" fill="#CDE9FC"/>
<path d="M30.292 313.024C30.5858 313.024 30.824 312.786 30.824 312.492C30.824 312.198 30.5858 311.96 30.292 311.96C29.9982 311.96 29.76 312.198 29.76 312.492C29.76 312.786 29.9982 313.024 30.292 313.024Z" fill="#CDE9FC"/>
<path d="M51.077 325.357C51.5548 325.357 51.942 324.97 51.942 324.492C51.942 324.014 51.5548 323.627 51.077 323.627C50.5993 323.627 50.212 324.014 50.212 324.492C50.212 324.97 50.5993 325.357 51.077 325.357Z" fill="#CDE9FC"/>
<path d="M71.862 337.623C72.4866 337.623 72.993 337.116 72.993 336.492C72.993 335.867 72.4866 335.361 71.862 335.361C71.2374 335.361 70.731 335.867 70.731 336.492C70.731 337.116 71.2374 337.623 71.862 337.623Z" fill="#CDE9FC"/>
<path d="M92.646 349.823C93.3811 349.823 93.977 349.227 93.977 348.492C93.977 347.757 93.3811 347.161 92.646 347.161C91.9109 347.161 91.315 347.757 91.315 348.492C91.315 349.227 91.9109 349.823 92.646 349.823Z" fill="#CDE9FC"/>
<path d="M113.431 362.023C114.277 362.023 114.962 361.337 114.962 360.492C114.962 359.646 114.277 358.961 113.431 358.961C112.585 358.961 111.9 359.646 111.9 360.492C111.9 361.337 112.585 362.023 113.431 362.023Z" fill="#CDE9FC"/>
<path d="M134.215 374.156C135.134 374.156 135.879 373.411 135.879 372.492C135.879 371.573 135.134 370.828 134.215 370.828C133.296 370.828 132.551 371.573 132.551 372.492C132.551 373.411 133.296 374.156 134.215 374.156Z" fill="#CDE9FC"/>
<path d="M155 386.222C155.955 386.222 156.73 385.447 156.73 384.492C156.73 383.536 155.955 382.762 155 382.762C154.045 382.762 153.27 383.536 153.27 384.492C153.27 385.447 154.045 386.222 155 386.222Z" fill="#CDE9FC"/>
<path d="M175.785 398.222C176.74 398.222 177.515 397.447 177.515 396.492C177.515 395.536 176.74 394.762 175.785 394.762C174.83 394.762 174.055 395.536 174.055 396.492C174.055 397.447 174.83 398.222 175.785 398.222Z" fill="#CDE9FC"/>
<path d="M196.569 410.089C197.451 410.089 198.166 409.374 198.166 408.492C198.166 407.61 197.451 406.895 196.569 406.895C195.687 406.895 194.972 407.61 194.972 408.492C194.972 409.374 195.687 410.089 196.569 410.089Z" fill="#CDE9FC"/>
<path d="M217.354 421.89C218.126 421.89 218.752 421.264 218.752 420.492C218.752 419.72 218.126 419.094 217.354 419.094C216.582 419.094 215.956 419.72 215.956 420.492C215.956 421.264 216.582 421.89 217.354 421.89Z" fill="#CDE9FC"/>
<path d="M238.138 433.623C238.763 433.623 239.269 433.116 239.269 432.492C239.269 431.867 238.763 431.361 238.138 431.361C237.513 431.361 237.007 431.867 237.007 432.492C237.007 433.116 237.513 433.623 238.138 433.623Z" fill="#CDE9FC"/>
<path d="M258.923 445.357C259.401 445.357 259.788 444.97 259.788 444.492C259.788 444.014 259.401 443.627 258.923 443.627C258.445 443.627 258.058 444.014 258.058 444.492C258.058 444.97 258.445 445.357 258.923 445.357Z" fill="#CDE9FC"/>
<path d="M279.708 457.091C280.039 457.091 280.307 456.822 280.307 456.492C280.307 456.161 280.039 455.893 279.708 455.893C279.377 455.893 279.109 456.161 279.109 456.492C279.109 456.822 279.377 457.091 279.708 457.091Z" fill="#CDE9FC"/>
<path d="M300.492 468.625C300.565 468.625 300.625 468.565 300.625 468.492C300.625 468.418 300.565 468.359 300.492 468.359C300.419 468.359 300.359 468.418 300.359 468.492C300.359 468.565 300.419 468.625 300.492 468.625Z" fill="#CDE9FC"/>
<path d="M18.292 333.344C18.329 333.344 18.359 333.314 18.359 333.277C18.359 333.24 18.329 333.21 18.292 333.21C18.255 333.21 18.225 333.24 18.225 333.277C18.225 333.314 18.255 333.344 18.292 333.344Z" fill="#CDE9FC"/>
<path d="M39.077 345.743C39.3343 345.743 39.543 345.534 39.543 345.277C39.543 345.019 39.3343 344.811 39.077 344.811C38.8196 344.811 38.611 345.019 38.611 345.277C38.611 345.534 38.8196 345.743 39.077 345.743Z" fill="#CDE9FC"/>
<path d="M59.862 358.009C60.2663 358.009 60.594 357.681 60.594 357.277C60.594 356.873 60.2663 356.545 59.862 356.545C59.4577 356.545 59.13 356.873 59.13 357.277C59.13 357.681 59.4577 358.009 59.862 358.009Z" fill="#CDE9FC"/>
<path d="M80.646 370.142C81.1237 370.142 81.511 369.754 81.511 369.277C81.511 368.799 81.1237 368.412 80.646 368.412C80.1683 368.412 79.781 368.799 79.781 369.277C79.781 369.754 80.1683 370.142 80.646 370.142Z" fill="#CDE9FC"/>
<path d="M101.431 382.275C101.982 382.275 102.429 381.828 102.429 381.277C102.429 380.726 101.982 380.279 101.431 380.279C100.88 380.279 100.433 380.726 100.433 381.277C100.433 381.828 100.88 382.275 101.431 382.275Z" fill="#CDE9FC"/>
<path d="M122.215 394.408C122.84 394.408 123.346 393.901 123.346 393.277C123.346 392.652 122.84 392.146 122.215 392.146C121.59 392.146 121.084 392.652 121.084 393.277C121.084 393.901 121.59 394.408 122.215 394.408Z" fill="#CDE9FC"/>
<path d="M143 406.475C143.662 406.475 144.198 405.938 144.198 405.277C144.198 404.615 143.662 404.079 143 404.079C142.338 404.079 141.802 404.615 141.802 405.277C141.802 405.938 142.338 406.475 143 406.475Z" fill="#CDE9FC"/>
<path d="M163.785 418.408C164.41 418.408 164.916 417.901 164.916 417.277C164.916 416.652 164.41 416.146 163.785 416.146C163.16 416.146 162.654 416.652 162.654 417.277C162.654 417.901 163.16 418.408 163.785 418.408Z" fill="#CDE9FC"/>
<path d="M184.569 430.342C185.157 430.342 185.634 429.865 185.634 429.277C185.634 428.689 185.157 428.212 184.569 428.212C183.981 428.212 183.504 428.689 183.504 429.277C183.504 429.865 183.981 430.342 184.569 430.342Z" fill="#CDE9FC"/>
<path d="M205.354 442.209C205.869 442.209 206.286 441.791 206.286 441.277C206.286 440.762 205.869 440.345 205.354 440.345C204.839 440.345 204.422 440.762 204.422 441.277C204.422 441.791 204.839 442.209 205.354 442.209Z" fill="#CDE9FC"/>
<path d="M226.138 454.009C226.542 454.009 226.87 453.681 226.87 453.277C226.87 452.873 226.542 452.545 226.138 452.545C225.734 452.545 225.406 452.873 225.406 453.277C225.406 453.681 225.734 454.009 226.138 454.009Z" fill="#CDE9FC"/>
<path d="M246.923 465.676C247.143 465.676 247.322 465.497 247.322 465.277C247.322 465.057 247.143 464.878 246.923 464.878C246.703 464.878 246.524 465.057 246.524 465.277C246.524 465.497 246.703 465.676 246.923 465.676Z" fill="#CDE9FC"/>
<path d="M267.708 477.344C267.745 477.344 267.775 477.314 267.775 477.277C267.775 477.24 267.745 477.21 267.708 477.21C267.671 477.21 267.641 477.24 267.641 477.277C267.641 477.314 267.671 477.344 267.708 477.344Z" fill="#CDE9FC"/>
<path d="M47.862 378.194C47.9355 378.194 47.995 378.134 47.995 378.061C47.995 377.987 47.9355 377.928 47.862 377.928C47.7885 377.928 47.729 377.987 47.729 378.061C47.729 378.134 47.7885 378.194 47.862 378.194Z" fill="#CDE9FC"/>
<path d="M68.646 390.46C68.8664 390.46 69.045 390.281 69.045 390.061C69.045 389.84 68.8664 389.662 68.646 389.662C68.4256 389.662 68.247 389.84 68.247 390.061C68.247 390.281 68.4256 390.46 68.646 390.46Z" fill="#CDE9FC"/>
<path d="M89.431 402.66C89.7618 402.66 90.03 402.392 90.03 402.061C90.03 401.73 89.7618 401.462 89.431 401.462C89.1002 401.462 88.832 401.73 88.832 402.061C88.832 402.392 89.1002 402.66 89.431 402.66Z" fill="#CDE9FC"/>
<path d="M110.215 414.727C110.583 414.727 110.881 414.428 110.881 414.061C110.881 413.693 110.583 413.395 110.215 413.395C109.847 413.395 109.549 413.693 109.549 414.061C109.549 414.428 109.847 414.727 110.215 414.727Z" fill="#CDE9FC"/>
<path d="M131 426.727C131.368 426.727 131.666 426.428 131.666 426.061C131.666 425.693 131.368 425.395 131 425.395C130.632 425.395 130.334 425.693 130.334 426.061C130.334 426.428 130.632 426.727 131 426.727Z" fill="#CDE9FC"/>
<path d="M151.785 438.727C152.153 438.727 152.451 438.428 152.451 438.061C152.451 437.693 152.153 437.395 151.785 437.395C151.417 437.395 151.119 437.693 151.119 438.061C151.119 438.428 151.417 438.727 151.785 438.727Z" fill="#CDE9FC"/>
<path d="M172.569 450.66C172.9 450.66 173.168 450.392 173.168 450.061C173.168 449.73 172.9 449.462 172.569 449.462C172.238 449.462 171.97 449.73 171.97 450.061C171.97 450.392 172.238 450.66 172.569 450.66Z" fill="#CDE9FC"/>
<path d="M193.354 462.46C193.574 462.46 193.753 462.281 193.753 462.061C193.753 461.84 193.574 461.662 193.354 461.662C193.134 461.662 192.955 461.84 192.955 462.061C192.955 462.281 193.134 462.46 193.354 462.46Z" fill="#CDE9FC"/>
<path d="M214.138 474.194C214.211 474.194 214.271 474.134 214.271 474.061C214.271 473.987 214.211 473.928 214.138 473.928C214.065 473.928 214.005 473.987 214.005 474.061C214.005 474.134 214.065 474.194 214.138 474.194Z" fill="#CDE9FC"/>
<path d="M98.215 434.913C98.252 434.913 98.282 434.883 98.282 434.846C98.282 434.809 98.252 434.779 98.215 434.779C98.178 434.779 98.148 434.809 98.148 434.846C98.148 434.883 98.178 434.913 98.215 434.913Z" fill="#CDE9FC"/>
<path d="M119 446.913C119.037 446.913 119.067 446.883 119.067 446.846C119.067 446.809 119.037 446.779 119 446.779C118.963 446.779 118.933 446.809 118.933 446.846C118.933 446.883 118.963 446.913 119 446.913Z" fill="#CDE9FC"/>
<path d="M139.785 458.913C139.822 458.913 139.852 458.883 139.852 458.846C139.852 458.809 139.822 458.779 139.785 458.779C139.748 458.779 139.718 458.809 139.718 458.846C139.718 458.883 139.748 458.913 139.785 458.913Z" fill="#CDE9FC"/>
</svg>
