<?xml version="1.0" encoding="UTF-8"?>
<svg xmlns="http://www.w3.org/2000/svg" viewBox="0 0 106.36 56.39">
  <defs>
    <style>
      .cls-1 {
        stroke-width: 0px;
      }
    </style>
  </defs>
  <g id="_клиника" data-name="клиника">
    <g>
      <path class="cls-1" d="m80.33,54.68h-.31v-3.18h.31v3.18Zm2.14,0h-.44l-1.34-1.25c-.14-.12-.2-.25-.2-.39,0-.12.08-.26.25-.41l1.21-1.13h.42l-1.41,1.34c-.09.08-.13.14-.13.2,0,.05.04.12.13.2l1.52,1.43Z"/>
      <path class="cls-1" d="m82.74,54.68l1.19-2.96c.07-.17.17-.25.31-.25s.24.08.31.25l1.19,2.96h-.35l-1.09-2.78c-.03-.06-.05-.1-.06-.1s-.03.03-.06.1l-1.09,2.78h-.35Z"/>
      <path class="cls-1" d="m88.96,54.68h-.31v-2.77s0-.07-.03-.07c-.01,0-.03.02-.07.07l-1.62,2.57c-.05.08-.1.14-.15.18-.05.03-.11.05-.19.05-.19,0-.29-.11-.29-.33v-2.89h.31v2.77c0,.05.01.08.04.08.02,0,.04-.03.07-.08l1.64-2.61c.08-.13.19-.19.33-.19.18,0,.28.12.28.37v2.85Z"/>
      <path class="cls-1" d="m92.36,54.68h-.31v-1.5h-1.91v1.5h-.31v-3.18h.31v1.4h1.91v-1.4h.31v3.18Z"/>
      <path class="cls-1" d="m95.89,54.68h-.31v-2.77s0-.07-.03-.07c-.01,0-.03.02-.07.07l-1.62,2.57c-.05.08-.1.14-.15.18-.05.03-.11.05-.19.05-.19,0-.29-.11-.29-.33v-2.89h.31v2.77c0,.05.01.08.04.08.02,0,.04-.03.07-.08l1.64-2.61c.08-.13.19-.19.33-.19.18,0,.28.12.28.37v2.85Z"/>
      <path class="cls-1" d="m97.07,54.68h-.31v-3.18h.31v3.18Zm2.14,0h-.44l-1.34-1.25c-.14-.12-.2-.25-.2-.39,0-.12.08-.26.25-.41l1.21-1.13h.42l-1.41,1.34c-.09.08-.13.14-.13.2,0,.05.04.12.13.2l1.52,1.43Z"/>
      <path class="cls-1" d="m99.83,51.5h1.54c.51,0,.76.27.76.8v1.96c0,.15-.03.26-.09.32-.06.06-.18.1-.37.1h-1.22c-.31,0-.53-.08-.66-.23-.13-.15-.2-.4-.2-.73s.07-.57.2-.72c.13-.15.35-.22.66-.22h1.37v-.53c0-.13-.04-.24-.11-.33s-.19-.13-.34-.13h-1.54v-.28Zm1.99,1.56h-1.46c-.18,0-.29.05-.36.17-.06.11-.09.28-.09.5s.03.39.09.5c.06.12.18.17.36.17h1.31c.1,0,.15-.05.15-.14v-1.19Z"/>
    </g>
  </g>
  <g id="_стоматологическая" data-name="стоматологическая">
    <g>
      <path class="cls-1" d="m48.59,49.45h-1.15c-.51,0-.86-.13-1.06-.39s-.29-.66-.29-1.2.1-.92.29-1.19c.19-.27.54-.4,1.05-.4h1.07v.28h-1.07c-.4,0-.67.11-.81.32s-.21.54-.21.99c0,.48.07.81.21,1.01.14.2.41.3.81.3h1.15v.28Z"/>
      <path class="cls-1" d="m50.5,49.45h-.31v-2.9h-1.2v-.28h2.71v.28h-1.2v2.9Z"/>
      <path class="cls-1" d="m52.38,46.61c.24-.25.64-.38,1.21-.38s.97.13,1.21.38.36.67.36,1.24-.12.99-.36,1.25-.65.38-1.21.38-.97-.13-1.21-.38-.36-.67-.36-1.25.12-.99.36-1.24Zm.24.2c-.19.19-.28.54-.28,1.05s.09.85.28,1.05c.19.2.51.3.97.3s.78-.1.97-.3c.19-.2.28-.55.28-1.05s-.09-.85-.28-1.05c-.19-.19-.51-.29-.97-.29s-.78.1-.97.29Z"/>
      <path class="cls-1" d="m59.02,46.67l-1.07,2.59c-.06.15-.16.23-.29.23s-.23-.08-.29-.23l-1.07-2.59s-.03-.05-.04-.05c-.02,0-.02.01-.02.04v2.79h-.31v-2.89c0-.22.1-.33.3-.33.14,0,.25.07.31.22l1.06,2.56c.03.07.05.11.07.11.01,0,.03-.04.07-.11l1.06-2.56c.06-.14.16-.22.31-.22.2,0,.3.11.3.33v2.89h-.31v-2.79s0-.04-.02-.04-.03.02-.04.05Z"/>
      <path class="cls-1" d="m60.4,46.27h1.54c.51,0,.76.27.76.8v1.96c0,.15-.03.26-.09.32-.06.06-.18.1-.37.1h-1.22c-.31,0-.53-.08-.66-.23-.13-.15-.2-.4-.2-.73s.07-.57.2-.72c.13-.15.35-.22.66-.22h1.37v-.53c0-.13-.04-.24-.11-.33s-.19-.13-.34-.13h-1.54v-.28Zm1.99,1.56h-1.46c-.18,0-.29.05-.36.17-.06.11-.09.28-.09.5s.03.39.09.5c.06.12.18.17.36.17h1.31c.1,0,.15-.05.15-.14v-1.19Z"/>
      <path class="cls-1" d="m64.76,49.45h-.31v-2.9h-1.2v-.28h2.71v.28h-1.2v2.9Z"/>
      <path class="cls-1" d="m66.64,46.61c.24-.25.64-.38,1.21-.38s.97.13,1.21.38.36.67.36,1.24-.12.99-.36,1.25-.65.38-1.21.38-.97-.13-1.21-.38-.36-.67-.36-1.25.12-.99.36-1.24Zm.24.2c-.19.19-.28.54-.28,1.05s.09.85.28,1.05c.19.2.51.3.97.3s.78-.1.97-.3c.19-.2.28-.55.28-1.05s-.09-.85-.28-1.05c-.19-.19-.51-.29-.97-.29s-.78.1-.97.29Z"/>
      <path class="cls-1" d="m69.8,49.45l1.19-2.96c.07-.17.17-.25.31-.25s.24.08.31.25l1.19,2.96h-.35l-1.09-2.78c-.03-.06-.05-.1-.06-.1s-.03.03-.06.1l-1.09,2.78h-.35Z"/>
      <path class="cls-1" d="m73.55,46.61c.24-.25.64-.38,1.21-.38s.97.13,1.21.38.36.67.36,1.24-.12.99-.36,1.25-.65.38-1.21.38-.97-.13-1.21-.38-.36-.67-.36-1.25.12-.99.36-1.24Zm.24.2c-.19.19-.28.54-.28,1.05s.09.85.28,1.05c.19.2.51.3.97.3s.78-.1.97-.3c.19-.2.28-.55.28-1.05s-.09-.85-.28-1.05c-.19-.19-.51-.29-.97-.29s-.78.1-.97.29Z"/>
      <path class="cls-1" d="m77.1,49.45v-2.68c0-.16.03-.29.1-.38.06-.09.18-.13.34-.13h1.96v.28h-1.88c-.07,0-.12.01-.15.04-.03.03-.04.09-.04.19v2.67h-.31Z"/>
      <path class="cls-1" d="m82.69,49.45h-.31v-2.77s0-.07-.03-.07c-.01,0-.03.02-.07.07l-1.62,2.57c-.05.08-.1.14-.15.18-.05.03-.11.05-.19.05-.19,0-.29-.11-.29-.33v-2.89h.31v2.77c0,.05.01.08.04.08.02,0,.04-.03.07-.08l1.64-2.61c.08-.13.19-.19.33-.19.18,0,.28.12.28.37v2.85Z"/>
      <path class="cls-1" d="m85.99,49.45h-.31v-1.49h-1.4c-.3,0-.51-.06-.63-.17s-.18-.32-.18-.61v-.91h.31v.91c0,.19.03.32.1.39.06.07.2.11.4.11h1.4v-1.4h.31v3.18Z"/>
      <path class="cls-1" d="m89.41,49.45h-1.56c-.41,0-.69-.14-.86-.41-.16-.27-.24-.66-.24-1.16,0-.57.1-.98.3-1.25.2-.27.55-.4,1.07-.4.91,0,1.37.4,1.37,1.21,0,.19-.03.32-.1.4-.06.08-.18.12-.36.12h-1.95c0,.16,0,.3.03.43.02.12.05.25.1.38s.13.22.24.29c.11.07.25.1.41.1h1.56v.28Zm-2.33-1.76h1.95c.09,0,.13-.05.13-.14v-.04c0-.37-.08-.63-.25-.77-.17-.14-.43-.21-.78-.21s-.63.08-.8.25-.25.47-.25.92Z"/>
      <path class="cls-1" d="m92.63,49.45h-1.15c-.51,0-.86-.13-1.06-.39s-.29-.66-.29-1.2.1-.92.29-1.19c.19-.27.54-.4,1.05-.4h1.07v.28h-1.07c-.4,0-.67.11-.81.32s-.21.54-.21.99c0,.48.07.81.21,1.01s.41.3.81.3h1.15v.28Z"/>
      <path class="cls-1" d="m93.61,49.45h-.31v-3.18h.31v3.18Zm2.14,0h-.44l-1.34-1.25c-.14-.12-.2-.25-.2-.39,0-.12.08-.26.25-.41l1.21-1.13h.42l-1.41,1.34c-.09.08-.13.14-.13.2,0,.05.04.12.13.2l1.52,1.43Z"/>
      <path class="cls-1" d="m96.36,46.27h1.54c.51,0,.76.27.76.8v1.96c0,.15-.03.26-.09.32-.06.06-.18.1-.37.1h-1.22c-.31,0-.53-.08-.66-.23-.13-.15-.2-.4-.2-.73s.07-.57.2-.72c.13-.15.35-.22.66-.22h1.37v-.53c0-.13-.04-.24-.11-.33s-.19-.13-.34-.13h-1.54v-.28Zm1.99,1.56h-1.46c-.18,0-.29.05-.36.17-.06.11-.09.28-.09.5s.03.39.09.5c.06.12.18.17.36.17h1.31c.1,0,.15-.05.15-.14v-1.19Z"/>
      <path class="cls-1" d="m99.33,49.45l1.2-1.14s.05-.06.05-.08c0-.02-.02-.03-.05-.03h-.34c-.52,0-.77-.32-.77-.97s.26-.96.77-.96h1.35c.16,0,.27.04.34.13.06.09.1.21.1.38v2.68h-.31v-2.67c0-.1-.01-.16-.04-.19-.03-.03-.08-.04-.15-.04h-1.28c-.1,0-.18.02-.25.06-.06.04-.11.1-.14.17-.03.07-.05.14-.05.21s-.01.15-.01.24,0,.17.01.24c0,.07.03.14.05.22.03.08.07.14.14.18.06.04.15.06.25.06h.61c.16,0,.24.06.24.18,0,.08-.03.15-.08.2l-1.21,1.15h-.42Z"/>
    </g>
  </g>
  <g id="_Сервис" data-name="Сервис">
    <g>
      <path class="cls-1" d="m34.07,35.81h-7.33c-4.98,0-7.46-3.03-7.46-9.1,0-1.33.11-2.51.34-3.54.23-1.02.61-1.97,1.17-2.85.55-.88,1.35-1.55,2.39-2.02,1.04-.47,2.31-.7,3.82-.7h6.79v1.25h-6.79c-2.25,0-3.85.66-4.8,1.98-.94,1.32-1.42,3.28-1.42,5.88s.45,4.58,1.35,5.89c.9,1.31,2.44,1.96,4.63,1.96h7.31v1.25Z"/>
      <path class="cls-1" d="m47.1,35.81h-6.76c-1.77,0-3-.59-3.71-1.77-.7-1.18-1.05-2.85-1.05-5.02,0-2.46.43-4.27,1.29-5.42.86-1.15,2.4-1.73,4.61-1.73,3.95,0,5.93,1.75,5.93,5.25,0,.81-.14,1.4-.42,1.74-.28.35-.8.52-1.56.52h-8.45c0,.69.04,1.31.12,1.85.08.54.23,1.08.44,1.62s.56.97,1.04,1.27c.48.3,1.06.46,1.75.46h6.76v1.22Zm-10.11-7.64h8.45c.38,0,.57-.21.57-.62v-.18c0-1.61-.37-2.73-1.1-3.34-.74-.62-1.87-.92-3.39-.92s-2.75.37-3.46,1.1-1.07,2.06-1.07,3.96Z"/>
      <path class="cls-1" d="m51.42,35.81v4.42h-1.35v-16.22c0-1.32.73-1.98,2.18-1.98h3.51c2.12,0,3.58.56,4.41,1.68s1.24,2.85,1.24,5.19-.41,4.08-1.24,5.21c-.82,1.14-2.29,1.7-4.41,1.7h-4.34Zm0-11.62v10.4h4.34c1.68,0,2.81-.47,3.38-1.42.57-.95.86-2.37.86-4.28s-.29-3.32-.86-4.25c-.57-.93-1.7-1.39-3.38-1.39h-3.51c-.29,0-.51.06-.64.2-.13.13-.2.38-.2.74Z"/>
      <path class="cls-1" d="m73.4,28.58v.1c.66.14,1.14.44,1.44.91.3.47.46,1.22.46,2.26,0,2.63-.98,3.95-2.94,3.95h-6.6c-.99,0-1.48-.55-1.48-1.64v-10.5c0-.47.15-.86.46-1.17.3-.31.69-.47,1.16-.47h6.16c1.13,0,1.94.29,2.43.88.49.59.74,1.47.74,2.65,0,.97-.13,1.68-.38,2.13s-.73.74-1.44.88Zm-7.77-.57h6.21c.69,0,1.2-.19,1.51-.57.31-.38.47-1,.47-1.87,0-.8-.15-1.38-.44-1.75-.29-.37-.81-.56-1.56-.56h-5.64c-.36,0-.55.17-.55.49v4.26Zm0,1.22v4.5c0,.21,0,.36.03.46.02.1.09.19.22.27s.33.13.58.13h5.12c.87,0,1.47-.18,1.81-.55.34-.36.51-1.09.51-2.18,0-1.75-.69-2.63-2.08-2.63h-6.19Z"/>
      <path class="cls-1" d="m89.83,35.81h-1.35v-11.99c0-.21-.04-.31-.13-.31-.05,0-.15.1-.29.31l-7.02,11.15c-.23.36-.44.62-.65.77-.21.15-.49.22-.83.22-.83,0-1.25-.48-1.25-1.43v-12.51h1.35v11.99c0,.23.05.34.16.34.07,0,.16-.11.29-.34l7.1-11.31c.35-.55.82-.83,1.43-.83.8,0,1.2.53,1.2,1.59v12.35Z"/>
      <path class="cls-1" d="m102.48,35.81h-4.97c-2.22,0-3.74-.56-4.58-1.68s-1.25-2.86-1.25-5.21.42-3.99,1.26-5.15c.84-1.16,2.36-1.74,4.56-1.74h4.65v1.22h-4.65c-1.72,0-2.88.46-3.5,1.37-.62.91-.92,2.34-.92,4.3,0,2.06.3,3.52.9,4.38.6.86,1.77,1.29,3.52,1.29h4.97v1.22Z"/>
    </g>
  </g>
  <g id="_Слой_6" data-name="Слой 6">
    <g>
      <path class="cls-1" d="m40.27,13.34l3.42-9.22c.09-.25-.1-.51-.37-.5-.35.02-.7.03-1.04.05-.15,0-.28.11-.33.24-1.85,4.87-3.1,8.49-3.43,9.6-.37,1.24-.55,2.4-.55,2.4-.05.34-.08.62-.1.81.93.01,1.85.03,2.78.04.25-.47.21-.68.13-.78-.12-.16-.37-.07-.61-.29-.16-.15-.22-.34-.25-.46-.06-.23-.05-.43,0-.68.05-.29.15-.7.35-1.19Z"/>
      <path class="cls-1" d="m44.68,43.3c-.24.06-.9.24-1.79.94-.99.78-1.54,1.63-2.12,2.55-.2.32-.52.91-1.15,2.09-.59,1.1-.87,1.67-1,1.94-.11.23-.1.21-.64,1.36-.64,1.37-.8,1.71-1.15,2.15-.47.59-.79.78-1.06.88-.27.1-.52.12-.82.15-.42.04-1.37-.31-1.61-.58-.35-.38-.54-.75-.61-.88-.37-.73-.49-1.31-.67-1.94-.03-.1-.22-.7-.61-1.88-.31-.95-.84-2.52-1.82-4.21-.37-.64-1.05-1.73-2.21-2.64-.57-.44-1.07-.7-1.67-.73-.23-.01-.62,0-1.24.27-1.13.49-1.84,1.3-2.21,1.76-.89,1.09-1.72,2.1-2.43,3.82-.82,2-.51,2.61-1.55,4.67-.64,1.27-1.11,1.74-1.67,2.03-1.1.57-2.15.33-2.52.24-.95-.23-1.58-.78-1.97-1.15-2.47-2.35-3.55-5-3.55-5-1.95-4.8-2.93-7.2-3.88-11.01-.98-3.89-1.78-7.1-2.09-11.61-.22-3.17-.4-6.16.39-10.04.97-4.72,2.76-7.65,3.34-8.55,1.74-2.7,3.36-3.94,3.91-4.34,1.68-1.21,3.2-1.71,3.64-1.85,1.87-.58,3.4-.56,4.21-.55.97.02,2.08.04,3.4.49,2.51.84,4.15,2.64,4.58,3.12.85.96,1.9,1.75,2.64,2.79.14.19.54.8,1.09.79.31,0,.54-.16.64-.24,1.34-1.2,2.51-2.31,3.52-3.3.99-.98,1.15-1.19,1.67-1.58,1.85-1.4,3.67-1.82,4.52-2,.94-.2,2.54-.53,4.55-.12.36.07,1.64.36,3.12,1.21,1.47.85,3.59,2.07,4.27,4.52.7,2.49-.55,4.67-.88,5.25-1.17,2.04-2.92,2.9-3.52,3.18-1.04.49-2.37,1.12-3.76.58-.3-.12-1.46-.63-1.82-1.73-.49-1.52.92-3,.36-3.49-.21-.19-.69-.2-.91,0-.13.12-.14.28-.15.36-.19,1.77-.33,1.54-.27,2.49.05.88.08,1.32.24,1.67.49,1.05,1.55,1.48,1.88,1.61.32.13,1.15.41,2.73.15,2.36-.38,4.03-1.58,4.61-2.03,1.17-.91,2.78-2.16,3.37-4.43.7-2.72-.55-4.98-.85-5.52-1.39-2.5-3.69-3.47-5.03-4.03C45.48-.17,43.16-.03,42.01.05c-.9.06-2.88.22-5.06,1.32-.88.44-2.22,1.11-3.46,2.46-.91.99-2.07,1.74-2.91,2.79-.09.11-.36.46-.73.45-.3,0-.54-.24-.67-.39-.34-.59-.84-1.35-1.55-2.15-1.5-1.71-3.07-2.62-3.67-2.94C20.09-.49,16.32.09,15.21.28c-1.85.31-3.18.92-4,1.3-.62.29-3.12,1.5-5.55,4.03C1.92,9.53.84,14.01.51,15.5c-.87,3.85-.47,6.93.09,11.13.26,1.96.7,3.93,1.58,7.88.69,3.1,1.05,4.69,1.76,6.88.95,2.93,1.9,5,2.49,6.28.2.43,1.01,2.16,2.3,4.27.85,1.39,1.5,2.25,2.49,3.03.48.38,1.09.85,2.03,1.15,1.56.49,2.88.14,3.15.06,1.32-.38,2.11-1.16,2.3-1.36.63-.65.9-1.3,1.27-2.18.24-.57.26-.73.76-2.46.7-2.41,1.52-3.79,2.18-4.7.81-1.1,1.01-1.51,1.61-1.82.44-.23.83-.26.94-.27.17-.01.52-.04.91.12.17.07.38.18.88.7.31.32.55.56.85.97.42.58.78,1.23,1.15,2.21.15.38.28.77.73,2.4.67,2.43.66,2.64,1,3.34.41.82.79,1.3,1.33,2,.34.44.57.67.91.85.43.22.83.24,1.36.27.41.02.89.05,1.49-.12.17-.05.67-.2,1.33-.7.65-.48,1.15-1.05,1.73-1.94.44-.67.57-.98,1.49-2.79.81-1.6,1.12-2.19,1.49-2.82.75-1.31,1.98-2.9,2.58-3.18.23-.11.43-.16.58-.18.14-.02.28-.04.42-.06,18.93-.05,37.86-.1,56.79-.15v-1.06c-32.65.06-57.14-.09-57.79.06Z"/>
      <path class="cls-1" d="m81.62,6.46c1.1-.08,2.99-.22,5.07-.69.69-.16,1.82-.45,3.01-.82.27-.08.53-.16.79-.25.26-.19.53-.38.79-.57l-1.22-.65c-.16-.09-.36-.08-.52,0-1.54.86-2.9,1.33-3.89,1.61-1.38.38-2.48.5-4,.67-1.7.18-3.13.24-4.18.25-.02.17-.03.35-.05.52,1.66.06,3.09,0,4.2-.07Z"/>
      <path class="cls-1" d="m56.03,16.65c.92.49,1.86.32,2.53.2.63-.11,1.06-.3,1.6-.54.42-.18,1.31-.61,2.28-1.37.82-.66,1.37-1.27,1.37-1.27.42-.45.63-.77.71-.72.12.06-.12.9-.46,1.61-.04.08-.37.76-.62,1.6-.03.12-.08.28,0,.41.17.29.8.25,1.21.12.13-.05.23-.1.3-.13.65-1.86,1.76-5.16,1.95-5.29.14-.09,1.25.12,2.15.09.79-.02.95-.06,1.07-.09.37-.1.64-.27.82-.39-.23.48-1.64,3.84-1.65,4.25-.01.17-.04.88.41,1.3.57.55,1.56.27,2,.15,1.03-.28,1.71-.96,2.13-1.37.31-.32.39-.46,1.28-1.42.62-.66.8-.83.88-.78.15.09-.15.93-.41,1.49-.2.42-.38.68-.58,1.25-.14.4-.21.6-.13.76.23.45,1.35.53,1.93.02.13-.12.2-.24.24-.32.12-.25.25-.51.37-.76.34-.66.63-1.22.86-1.64.59-1.11.9-1.68,1.32-2.35.59-.94.54-.71,1-1.48.18-.28.43-.71.9-1.17.25-.24.43-.36.65-.43.07-.02.63-.18.93.1.32.29.16.92-.02,1.58-.18.68-.38,1.05-.63,1.62-.69,1.55-1.53,3.71-1.66,4.6-.02.15-.03.28-.04.36.23.1,1.06.44,1.88.07.16-.07.29-.16.41-.26.48-1.01,1.1-2.28,1.85-3.75.97-1.94,1-1.61,1.65-2.78.04-.07.5-.89,1.29-1.4.18-.11.45-.27.78-.22.12.02.39.06.54.3.1.16.08.34.07.41-.11.32-.28.79-.48,1.36-.84,2.36-.66,1.98-.78,2.22,0,0-.47,1.15-.86,2.75-.06.25-.16.69.08,1.06.15.24.4.35.55.41.2.01.47.02.79-.02.07-.01.4-.06.8-.21.74-.28,1.33-.77,1.58-.98,1.22-1.04,2.1-1.98,2.32-2.21.49-.52.94-1.03,1.35-1.53.12-.29,0-.58-.2-.67-.19-.07-.39.07-.41.08-.5.51-.88.95-1.13,1.26-.5.61-.87,1.12-1.46,1.68-.27.26-.51.46-.69.59-.38.31-.53.39-.61.43-.18.09-.68.34-.91.15-.13-.11-.12-.32-.09-.59.1-1.09.26-1.6.26-1.6.13-.44.17-.51.61-1.7.36-.98.27-.76.39-1.08.37-.95.51-1.12.52-1.56,0-.21.02-.7-.31-1.04-.13-.14-.32-.24-.66-.32-1.13-.25-2.2.28-2.24.3-.31.16-.75.45-1.58,1.56-.66.88-1,1.53-2.06,3.42-.93,1.67-1.21,2.19-1.26,2.19-.05-.03.34-.83,1-2.58.26-.69.14-.39.45-1.21.37-.98.52-1.34.61-1.95.08-.53.12-.84-.05-1.17-.27-.49-.81-.65-1.03-.71-.72-.2-1.34.06-1.56.15-.34.15-.59.34-1.06.82-.6.61-1.05,1.07-1.64,1.95-.48.72-.42.78-1.26,2.29-.55,1-1.15,1.98-1.28,2.13.03-.07.16-.3.33-.68.39-.86.47-1.23.95-2.51.1-.26.22-.57.39-.98.49-1.19.79-1.7.8-2.51,0-.21-.02-.39-.04-.5-1.15,0-2.32.03-3.47.04-.16.17-.2.39-.11.54.05.09.13.13.18.15.46-.02.92-.03,1.38-.04.02.68-.09,1.23-.19,1.58-.24.87-.65,1.45-.94,1.87-.36.5-.71.86-.95,1.1-.39.39-.53.47-1.05.99-.48.48-.43.48-.8.83-.7.69-1.23,1.19-1.71,1.06-.01,0-.28-.07-.41-.31-.05-.09-.09-.24-.02-.67.09-.46,1.84-4.84,2.25-6.09.14-.43.25-.8.31-1.04-.6.01-1.21.01-1.83.02-.01.44-.1,2.02-1.23,2.82-.12.09-.26.17-.43.24-.99.01-1.81,0-2.37,0-.14,0-.41,0-.58-.19-.04-.05-.15-.19-.13-.57.04-.49.25-.77.51-1.27.12-.23.28-.59.44-1.04-1.21.01-2.43.01-3.64.02-.04.04-.2.25-.16.52.01.09.04.17.07.22.49,0,.98-.01,1.47-.02-.11,1.58-.64,2.58-1,3.1-.21.31-.53.64-1.16,1.31-.74.78-1.18,1.24-1.91,1.74-.11.07-.59.4-1.28.72-.37.18-.72.34-1.17.47-.76.21-1.62.45-2.26,0-.4-.28-.55-.72-.66-1.04-.06-.2-.22-.75-.07-1.42.05-.21.11-.38.17-.5.61.19,1.99.5,3.43-.09,1.63-.68,3.16-2.44,2.82-3.79-.05-.21-.25-.79-.78-1.12-.54-.33-1.17-.24-1.69-.17-.21.03-.6.11-1.1.32-.78.33-1.24.77-1.93,1.41-.39.38-.93.94-1.47,1.72-.15.21-.31.44-.46.72-.29.53-1.29,2.34-.51,3.85.38.73,1.02,1.07,1.19,1.17Zm2.46-7.27c.86-.96,1.34-1.13,1.66-1.19.2-.04.69-.12.96.15.44.43.02,1.43-.12,1.78-.12.29-.42.99-1.19,1.48-.19.12-.75.47-1.48.44-.24,0-.58-.03-.86-.27-.19-.16-.28-.35-.32-.47.48-.87.98-1.51,1.36-1.93Z"/>
    </g>
  </g>
</svg>